<?xml version="1.0" standalone="no"?>
<!DOCTYPE svg PUBLIC "-//W3C//DTD SVG 1.1//EN" "http://www.w3.org/Graphics/SVG/1.1/DTD/svg11.dtd" >
<svg>
<metadata>
Created by FontForge 20120731 at Thu Mar 17 15:52:43 2016
 By www
Copyright (c) 2008 by Ramiz Guseynov. All rights reserved.
</metadata>
<defs>
<font id="DecimaW01-Regular" horiz-adv-x="525" >
  <font-face 
    font-family="DecimaW01-Regular"
    font-weight="400"
    font-stretch="normal"
    units-per-em="1000"
    panose-1="2 0 5 6 0 0 0 2 0 4"
    ascent="750"
    descent="-250"
    x-height="500"
    cap-height="700"
    bbox="-65 -209 1225 910"
    underline-thickness="50"
    underline-position="-100"
    unicode-range="U+0002-2122"
  />
<missing-glyph horiz-adv-x="220" 
 />
    <glyph glyph-name=".notdef" horiz-adv-x="220" 
 />
    <glyph glyph-name=".null" horiz-adv-x="0" 
 />
    <glyph glyph-name="uni000D" unicode="&#xd;" horiz-adv-x="220" 
 />
    <glyph glyph-name="uni0002" horiz-adv-x="0" 
 />
    <glyph glyph-name="uni0009" unicode="&#x9;" horiz-adv-x="220" 
 />
    <glyph glyph-name="uni000A" unicode="&#xa;" horiz-adv-x="0" 
 />
    <glyph glyph-name="space" unicode=" " horiz-adv-x="220" 
 />
    <glyph glyph-name="exclam" unicode="!" horiz-adv-x="258" 
d="M80 98h98v-98h-98v98zM169 165h-81v535h81v-535z" />
    <glyph glyph-name="quotedbl" unicode="&#x22;" horiz-adv-x="372" 
d="M85 700h71v-236h-71v236zM216 700h71v-236h-71v236z" />
    <glyph glyph-name="numbersign" unicode="#" horiz-adv-x="621" 
d="M524 192h-99l-27 -192h-77l26 192h-116l-27 -192h-76l27 192h-90v75h101l22 158h-91v75h102l28 200h76l-29 -200h117l29 200h78l-29 -200h87v-75h-97l-23 -158h88v-75zM358 267l22 158h-116l-23 -158h117z" />
    <glyph glyph-name="dollar" unicode="$" horiz-adv-x="512" 
d="M216 1q-34 4 -61.5 20t-47.5 40t-31 55t-11 66v30h83v-30q0 -44 28.5 -74.5t73.5 -30.5h12q22 0 40.5 8t32 21t21 30.5t7.5 37.5q0 45 -21.5 73.5t-53.5 49t-69.5 37.5t-69.5 40.5t-53.5 57.5t-21.5 88q0 33 11 62t30 52.5t45 40t56 23.5v50h79v-50q64 -13 104.5 -62.5
t40.5 -127.5h-84q0 51 -27 82.5t-72 31.5q-43 0 -70.5 -27.5t-27.5 -69.5q0 -36 21.5 -58.5t53.5 -41t69 -36.5t69 -44.5t53.5 -65t21.5 -97.5q0 -35 -11 -66t-31.5 -55t-48.5 -40t-61 -20v-49h-79v49z" />
    <glyph glyph-name="percent" unicode="%" horiz-adv-x="914" 
d="M365 427q0 -32 -11.5 -59.5t-32 -47.5t-47 -31.5t-56.5 -11.5h-7q-30 0 -56.5 12t-46.5 32t-31.5 47.5t-11.5 58.5v132q0 31 11.5 58.5t31.5 48t46.5 32t56.5 11.5h7q30 0 56.5 -11.5t47 -32t32 -48t11.5 -58.5v-132zM286 562q0 31 -21 53.5t-52 22.5q-29 0 -49.5 -22.5
t-20.5 -53.5v-138q0 -32 20.5 -54t51.5 -22q29 0 50 22t21 53v139zM849 139q0 -31 -11.5 -58.5t-31.5 -47.5t-46.5 -32t-56.5 -12h-8q-30 0 -56 12t-46 32.5t-31.5 47.5t-11.5 58v132q0 32 11.5 59.5t31.5 47.5t46 31.5t56 11.5h8q30 0 56.5 -11.5t46.5 -31.5t31.5 -47.5
t11.5 -59.5v-132zM770 274q0 32 -20.5 54.5t-51.5 22.5q-29 0 -49.5 -22.5t-20.5 -54.5v-137q0 -32 20.5 -54.5t51.5 -22.5q29 0 49.5 22t20.5 54v138zM593 700h84l-354 -700h-86z" />
    <glyph glyph-name="ampersand" unicode="&#x26;" horiz-adv-x="491" 
d="M398 621h-230v-7l162 -372l21 -60v146h84v-154q0 -31 -7 -55.5t-24 -46.5l32 -72h-91l-6 14q-20 -11 -44 -17.5t-47 -6.5h-6q-39 0 -73 14.5t-59.5 39.5t-40 59t-14.5 72v143q0 50 25 86.5t64 55.5l-59 133v107h313v-79zM246 69q17 0 33 5t27 12l-130 300
q-17 -11 -27 -30t-10 -39v-143q0 -22 8.5 -41t22.5 -33.5t33.5 -22.5t42.5 -8z" />
    <glyph glyph-name="quotesingle" unicode="'" horiz-adv-x="242" 
d="M85 692h72v-236h-72v236z" />
    <glyph glyph-name="parenleft" unicode="(" horiz-adv-x="327" 
d="M282 -190q-41 0 -77 14.5t-62.5 39.5t-42 59t-15.5 72v532q0 38 15.5 71.5t42 58.5t62.5 39.5t77 14.5v-81q-50 0 -82 -29.5t-32 -74.5v-532q0 -45 32 -75t82 -30v-79z" />
    <glyph glyph-name="parenright" unicode=")" horiz-adv-x="328" 
d="M45 -111q50 0 81.5 30t31.5 75v532q0 45 -31.5 74.5t-81.5 29.5v81q41 0 77 -14.5t63 -39.5t42.5 -58.5t15.5 -71.5v-532q0 -38 -15.5 -72t-42.5 -59t-63 -39.5t-77 -14.5v79z" />
    <glyph glyph-name="asterisk" unicode="*" horiz-adv-x="344" 
d="M206 699v-72l73 23l20 -61l-74 -27l46 -60l-55 -39l-44 58l-39 -58l-56 37l41 61l-73 21l20 64l73 -21v74h68z" />
    <glyph glyph-name="plus" unicode="+" horiz-adv-x="585" 
d="M334 516v-181h186v-81h-186v-183h-83v183h-186v81h186v181h83z" />
    <glyph glyph-name="comma" unicode="," horiz-adv-x="230" 
d="M67 98h98v-91l-42 -124h-58l34 117h-32v98z" />
    <glyph glyph-name="hyphen" unicode="-" horiz-adv-x="374" 
d="M309 254h-244v78h244v-78z" />
    <glyph glyph-name="period" unicode="." horiz-adv-x="228" 
d="M65 98h98v-98h-98v98z" />
    <glyph glyph-name="slash" unicode="/" horiz-adv-x="362" 
d="M273 700h84l-269 -700h-83z" />
    <glyph glyph-name="zero" unicode="0" horiz-adv-x="494" 
d="M429 174q0 -38 -14 -71.5t-38.5 -58.5t-57 -39.5t-69.5 -14.5h-7q-38 0 -70.5 14.5t-56.5 39.5t-37.5 59t-13.5 72v351q0 38 13.5 71.5t37.5 58.5t56.5 39.5t70.5 14.5h7q37 0 69.5 -14.5t57 -39.5t38.5 -58.5t14 -71.5v-352zM346 525q0 22 -8 41.5t-21.5 33.5
t-31.5 22.5t-39 8.5q-42 0 -70.5 -30.5t-28.5 -75.5v-351q0 -22 7.5 -41t21 -33.5t32 -22.5t39.5 -8q42 0 70.5 29.5t28.5 74.5v352z" />
    <glyph glyph-name="one" unicode="1" horiz-adv-x="275" 
d="M15 700h175v-700h-84v621h-91v79z" />
    <glyph glyph-name="two" unicode="2" horiz-adv-x="474" 
d="M53 510q0 44 15 80.5t41 63t60.5 41.5t73.5 15t73 -14t59 -38.5t39.5 -58t14.5 -72.5q0 -53 -22 -94t-55.5 -76t-72.5 -65.5t-72.5 -63t-55.5 -68.5t-22 -81h300v-79h-384v73q0 60 22 105t55.5 81.5t72.5 67.5t72.5 62.5t55.5 66t22 77.5q0 21 -8.5 39t-22.5 31
t-32.5 20.5t-39.5 7.5q-23 0 -42 -9.5t-33 -26t-22 -38.5t-8 -47h-84z" />
    <glyph glyph-name="three" unicode="3" horiz-adv-x="481" 
d="M73 700h326v-74l-119 -155q26 -3 50.5 -16.5t43.5 -34t30.5 -47.5t11.5 -58v-140q0 -38 -14.5 -72t-40 -59t-59.5 -39.5t-73 -14.5h-7q-39 0 -73 14.5t-59.5 39.5t-40 58.5t-14.5 71.5v20h84v-21q0 -22 8.5 -41t22.5 -33t33.5 -22t42.5 -8q45 0 75.5 30t30.5 75v140
q0 32 -23 55.5t-56 23.5h-75v75l114 153h-219v79z" />
    <glyph glyph-name="four" unicode="4" horiz-adv-x="481" 
d="M35 226l224 474h90l-218 -471h163v180h84v-180h58v-81h-58v-148h-84v148h-259v78z" />
    <glyph glyph-name="five" unicode="5" horiz-adv-x="500" 
d="M55 194h84v-21q0 -22 8.5 -41t22.5 -33t33.5 -22t42.5 -8q22 0 41 8t33 22.5t22.5 33.5t8.5 41v114q0 22 -8.5 41t-22.5 33t-33 22.5t-41 8.5h-7q-33 0 -55 -18t-30 -35l-77 23l29 337h305v-81h-225l-17 -165q15 8 34 13t39 5h6q39 0 73 -14.5t59.5 -39t40 -58
t14.5 -71.5v-114q0 -38 -14.5 -72t-40 -59t-59.5 -39.5t-73 -14.5h-6q-39 0 -73 14.5t-59.5 39.5t-40 58.5t-14.5 71.5v20z" />
    <glyph glyph-name="six" unicode="6" horiz-adv-x="510" 
d="M148 429q16 16 41 29.5t62 13.5h7q39 0 73 -14.5t59.5 -39t40 -58t14.5 -71.5v-114q0 -38 -14.5 -72t-40 -59t-59.5 -39.5t-73 -14.5h-7q-39 0 -73 14.5t-59 39.5t-39.5 58.5t-14.5 71.5v351q0 38 14 72t38.5 59t58 39.5t72.5 14.5h5q39 0 73 -14.5t59 -40t39 -59
t14 -72.5h-85q0 22 -7.5 41.5t-21.5 33.5t-33 22.5t-41 8.5q-44 0 -73 -30.5t-29 -75.5v-95zM249 393q-18 0 -36.5 -8.5t-32.5 -22.5t-23 -33t-9 -41v-115q0 -45 31 -74.5t76 -29.5t75.5 30t30.5 75v114q0 22 -8.5 41t-22.5 33t-33.5 22.5t-41.5 8.5h-6z" />
    <glyph glyph-name="seven" unicode="7" horiz-adv-x="400" 
d="M123 0q0 59 11.5 121.5t28.5 123t37 117.5t37.5 106.5t30 88.5t13.5 64h-266v79h350v-73q0 -29 -11.5 -71t-29 -93t-37.5 -109t-37.5 -118t-29 -120.5t-11.5 -115.5h-86z" />
    <glyph glyph-name="eight" unicode="8" horiz-adv-x="510" 
d="M436 498q0 -42 -17 -76.5t-46 -57.5q34 -26 53 -64t19 -83v-43q0 -38 -14.5 -71.5t-39 -58.5t-58.5 -39.5t-73 -14.5h-9q-39 0 -73 14.5t-59 39.5t-39.5 59t-14.5 72v42q0 45 19.5 83t53.5 64q-31 23 -48 58t-17 77v36q0 36 14 68t38 56t56 37.5t69 13.5h9
q37 0 69.5 -13.5t56.5 -37.5t37.5 -56t13.5 -68v-37zM361 216q0 45 -30.5 75.5t-75.5 30.5q-22 0 -41 -8.5t-33.5 -22.5t-23 -33.5t-8.5 -41.5v-42q0 -22 8.5 -41t23 -33.5t34 -22.5t42.5 -8q21 0 40 8t33.5 22t22.5 33t8 41v43zM352 531q0 42 -28 71t-71 29q-20 0 -37.5 -8
t-30.5 -21.5t-20.5 -31.5t-7.5 -39v-33q0 -19 7 -36.5t19 -31t29.5 -21.5t38.5 -8h9q38 0 65 27t27 69v34z" />
    <glyph glyph-name="nine" unicode="9" horiz-adv-x="510" 
d="M362 271q-16 -16 -41 -29.5t-62 -13.5h-7q-39 0 -73 14t-59.5 39t-40 58.5t-14.5 71.5v114q0 38 14.5 72t40 59t59.5 39.5t73 14.5h7q39 0 73 -14.5t59 -39.5t39.5 -58.5t14.5 -71.5v-351q0 -38 -14 -72t-38.5 -59t-58 -39.5t-72.5 -14.5h-5q-39 0 -73 14.5t-59 40
t-39 59t-14 72.5h85q0 -22 7.5 -41.5t21.5 -33.5t32.5 -22.5t41.5 -8.5q44 0 73 30.5t29 75.5v95zM261 307q18 0 36.5 8t32.5 22.5t23 33.5t9 41v115q0 45 -31 74.5t-76 29.5t-75.5 -30t-30.5 -75v-114q0 -22 8.5 -41t22.5 -33.5t33.5 -22.5t41.5 -8h6z" />
    <glyph glyph-name="colon" unicode=":" horiz-adv-x="228" 
d="M65 98h98v-98h-98v98zM65 500h98v-98h-98v98z" />
    <glyph glyph-name="semicolon" unicode=";" horiz-adv-x="230" 
d="M67 500h98v-98h-98v98zM67 98h98v-91l-42 -124h-58l34 117h-32v98z" />
    <glyph glyph-name="less" unicode="&#x3c;" horiz-adv-x="544" 
d="M65 328l414 187v-86l-314 -138l314 -137v-87l-414 188v73z" />
    <glyph glyph-name="equal" unicode="=" horiz-adv-x="573" 
d="M508 167h-443v78h443v-78zM508 339h-443v78h443v-78z" />
    <glyph glyph-name="greater" unicode="&#x3e;" horiz-adv-x="544" 
d="M479 255l-414 -188v87l314 137l-314 138v86l414 -187v-73z" />
    <glyph glyph-name="question" unicode="?" horiz-adv-x="472" 
d="M40 520q0 44 14.5 79t40 59.5t60 37.5t73.5 13q40 0 74.5 -13t60 -36.5t40 -57.5t14.5 -76q0 -46 -12 -76.5t-30 -53.5t-38.5 -42.5t-38.5 -44.5t-30 -59t-12 -85h-83q0 60 11.5 100t29.5 68.5t38 49t38 41t29.5 45.5t11.5 62q0 42 -30 69.5t-73 27.5q-45 0 -75 -28.5
t-30 -79.5h-83zM164 99h101v-99h-101v99z" />
    <glyph glyph-name="at" unicode="@" horiz-adv-x="646" 
d="M304 161q0 -19 8 -36t21.5 -30.5t31 -21.5t37.5 -8q21 0 39.5 8t32 21.5t21.5 30.5t8 36v176q0 19 -8 36.5t-21.5 30.5t-31.5 20.5t-39 7.5q-20 0 -38 -7.5t-31.5 -20.5t-21.5 -30.5t-8 -36.5v-176zM402 506q31 0 56.5 -9.5t44.5 -25.5q0 34 -14.5 63.5t-38 51.5
t-54 34.5t-64.5 12.5h-16q-34 0 -65 -13.5t-55 -36.5t-38 -53t-14 -64v-396q0 -33 13 -63.5t35 -53t51.5 -36t62.5 -13.5h19v-77h-16q-51 0 -95.5 19.5t-77.5 53t-52 77.5t-19 93v396q0 50 20 94.5t54.5 77.5t80 52.5t96.5 19.5h16q49 0 94.5 -18.5t79.5 -51t54.5 -76
t20.5 -93.5v-471h-78v24q-19 -14 -44.5 -23t-56.5 -9q-39 0 -71.5 12.5t-56 34.5t-36 52t-12.5 64v187q0 34 12.5 64t36 52t56 35t71.5 13z" />
    <glyph glyph-name="A" unicode="A" 
d="M334 700l121 -403v-297h-85v223h-216v-223h-84v299l121 401h143zM272 621h-19l-95 -320h210z" />
    <glyph glyph-name="B" unicode="B" horiz-adv-x="500" 
d="M263 700q36 0 66.5 -12.5t52 -33.5t34 -49.5t12.5 -60.5v-55q0 -35 -16.5 -66t-40.5 -53q29 -23 46.5 -55.5t17.5 -74.5v-72q0 -37 -14.5 -67.5t-38.5 -53t-56 -35t-66 -12.5h-180v700h183zM164 619v-213h101q35 0 58.5 23t23.5 56v56q0 32 -23.5 55t-58.5 23h-101z
M164 79h96q20 0 36.5 7.5t28.5 19.5t19 28t7 34v72q0 12 -5 27.5t-16 29.5t-28.5 23.5t-41.5 9.5h-96v-251z" />
    <glyph glyph-name="C" unicode="C" horiz-adv-x="514" 
d="M454 174q0 -38 -14.5 -71.5t-40 -58.5t-60 -39.5t-74.5 -14.5h-5q-40 0 -74.5 14.5t-60 39.5t-40.5 59t-15 72v351q0 38 15 71.5t40.5 58.5t60 39.5t74.5 14.5h5q40 0 74.5 -14.5t60 -39.5t40 -58.5t14.5 -72.5h-84q0 22 -8.5 41t-23 33t-34 22t-41.5 8q-23 0 -42.5 -8
t-34 -22t-23 -33t-8.5 -41v-351q0 -22 8.5 -41t23 -33.5t34 -22.5t42.5 -8q22 0 41.5 8t34 22t23 33t8.5 41v21h84v-20z" />
    <glyph glyph-name="D" unicode="D" horiz-adv-x="519" 
d="M449 184q0 -38 -15 -71.5t-40.5 -58.5t-60 -39.5t-73.5 -14.5h-185v700h185q39 0 73.5 -14.5t60 -39.5t40.5 -58.5t15 -71.5v-332zM364 515q0 22 -8.5 41t-22.5 33t-34 22t-42 8h-98v-540h98q22 0 42 8t34 22t22.5 33t8.5 41v332z" />
    <glyph glyph-name="E" unicode="E" horiz-adv-x="480" 
d="M422 700v-79h-258v-213h234v-78h-234v-251h266v-79h-350v700h342z" />
    <glyph glyph-name="F" unicode="F" horiz-adv-x="452" 
d="M417 700v-79h-258v-213h234v-78h-234v-330h-84v700h342z" />
    <glyph glyph-name="G" unicode="G" horiz-adv-x="532" 
d="M467 174q0 -38 -15 -71.5t-40.5 -58.5t-60.5 -39.5t-74 -14.5h-17q-40 0 -74.5 14.5t-60 39.5t-40.5 59t-15 72v351q0 38 15 71.5t40.5 58.5t60 39.5t74.5 14.5h17q39 0 74 -14.5t60.5 -39.5t40.5 -58.5t15 -72.5h-86q0 22 -8 41t-22.5 33t-34 22t-42.5 8h-11
q-23 0 -42.5 -8t-34 -22t-23 -33t-8.5 -41v-351q0 -22 8.5 -41t23 -33.5t34 -22.5t42.5 -8h11q23 0 42.5 8t34 22t22.5 33t8 41v108h-102v79h188v-186z" />
    <glyph glyph-name="H" unicode="H" horiz-adv-x="545" 
d="M465 700v-700h-85v330h-216v-330h-84v700h84v-292h216v292h85z" />
    <glyph glyph-name="I" unicode="I" horiz-adv-x="244" 
d="M164 0h-84v700h84v-700z" />
    <glyph glyph-name="J" unicode="J" horiz-adv-x="453" 
d="M378 700v-548q0 -34 -13 -63.5t-35.5 -51.5t-53 -34.5t-65.5 -12.5t-65 12.5t-52.5 34.5t-35.5 51.5t-13 63.5v110h84v-115q0 -32 24 -55t56 -23q35 0 58.5 23t23.5 55v553h87z" />
    <glyph glyph-name="K" unicode="K" horiz-adv-x="516" 
d="M262 368l234 -368h-97l-234 371l222 329h98zM165 0h-85v700h85v-700z" />
    <glyph glyph-name="L" unicode="L" horiz-adv-x="417" 
d="M165 700v-621h227v-79h-312v700h85z" />
    <glyph glyph-name="M" unicode="M" horiz-adv-x="638" 
d="M558 700v-700h-85v500l3 45l-120 -245h-74l-120 244l3 -44v-500h-85v700h91l146 -308h4l146 308h91z" />
    <glyph glyph-name="N" unicode="N" horiz-adv-x="545" 
d="M465 700v-700h-92l-216 535l7 -56v-479h-84v700h92l216 -534l-7 54v480h84z" />
    <glyph glyph-name="O" unicode="O" horiz-adv-x="537" 
d="M467 174q0 -38 -15 -71.5t-40.5 -58.5t-60.5 -39.5t-74 -14.5h-17q-40 0 -74.5 14.5t-60 39.5t-40.5 59t-15 72v351q0 38 15 71.5t40.5 58.5t60 39.5t74.5 14.5h17q39 0 74 -14.5t60.5 -39.5t40.5 -58.5t15 -71.5v-352zM381 525q0 22 -8 41t-22.5 33t-34 22t-42.5 8h-11
q-23 0 -42.5 -8t-34 -22t-23 -33t-8.5 -41v-351q0 -22 8.5 -41t23 -33.5t34 -22.5t42.5 -8h11q23 0 42.5 8t34 22t22.5 33t8 41v352z" />
    <glyph glyph-name="P" unicode="P" horiz-adv-x="481" 
d="M80 700h191q33 0 62.5 -12t51 -33t34 -49.5t12.5 -61.5v-144q0 -33 -12.5 -61.5t-34 -50t-51 -33.5t-62.5 -12h-107v-243h-84v700zM346 543q0 32 -23 54t-56 22h-103v-297h103q33 0 56 22t23 53v146z" />
    <glyph glyph-name="Q" unicode="Q" horiz-adv-x="535" 
d="M467 174q0 -53 -28 -95l46 -50l-58 -53l-43 46q-23 -15 -50 -23.5t-57 -8.5h-17q-40 0 -74.5 14.5t-60 39.5t-40.5 59t-15 72v351q0 38 15 71.5t40.5 58.5t60 39.5t74.5 14.5h17q39 0 74 -14.5t60.5 -39.5t40.5 -58.5t15 -71.5v-352zM377 147q1 3 2 7q2 8 2 19v352
q0 22 -8 41t-22.5 33t-34 22t-42.5 8h-11q-23 0 -42.5 -8t-34 -22t-23 -33t-8.5 -41v-351v-9t1 -8q45 50 107 50q27 0 55.5 -13t58.5 -47zM266 68q23 0 37 4t26 11q-20 26 -37.5 37.5t-30.5 11.5q-23 0 -38.5 -11t-26.5 -30q14 -11 32 -17t38 -6z" />
    <glyph glyph-name="R" unicode="R" horiz-adv-x="504" 
d="M254 255h-90v-255h-84v700h191q33 0 62.5 -12t51 -33t34 -49.5t12.5 -61.5v-133q0 -48 -24 -85.5t-67 -56.5l114 -269h-91zM346 543q0 32 -23 54t-55 22h-104v-286h104q32 0 55 22t23 53v135z" />
    <glyph glyph-name="S" unicode="S" horiz-adv-x="507" 
d="M361 524q0 20 -8 39t-22 33.5t-33.5 23.5t-42.5 9q-44 0 -74.5 -27.5t-30.5 -69.5q0 -37 22.5 -61t56 -44t72.5 -39.5t72.5 -47t56 -67.5t22.5 -99q0 -38 -15 -71.5t-40.5 -58.5t-60 -39.5t-73.5 -14.5h-18q-40 0 -74.5 14.5t-60 39.5t-40.5 58.5t-15 71.5v27h85v-27
q0 -22 8.5 -41t23 -33.5t34 -22.5t42.5 -8h11q23 0 42.5 8t34 21t22.5 30.5t8 37.5q0 46 -22.5 75.5t-55.5 51.5t-72.5 40.5t-72.5 43.5t-55.5 60t-22.5 90q0 39 15 72.5t40.5 58t60.5 38.5t74 14t73.5 -14.5t60 -39.5t40.5 -59t15 -73h-83z" />
    <glyph glyph-name="T" unicode="T" horiz-adv-x="434" 
d="M25 700h384v-80h-149v-620h-87v620h-148v80z" />
    <glyph glyph-name="U" unicode="U" horiz-adv-x="547" 
d="M472 700v-526q0 -38 -15 -71.5t-40.5 -58.5t-60.5 -39.5t-74 -14.5h-17q-40 0 -74.5 14.5t-60 39.5t-40.5 59t-15 72v525h85v-526q0 -22 8.5 -41t23 -33.5t34 -22.5t42.5 -8h11q23 0 42.5 8t34 22t22.5 33t8 41v527h86z" />
    <glyph glyph-name="V" unicode="V" 
d="M154 411l99 -332h19l98 332v289h85v-297l-121 -403h-143l-121 401v299h84v-289z" />
    <glyph glyph-name="W" unicode="W" horiz-adv-x="693" 
d="M532 700h86v-298l-58 -402h-136l-75 295h-6l-74 -295h-137l-57 402v298h85v-291l41 -328h9l86 319h100l85 -319h9l42 328v291z" />
    <glyph glyph-name="X" unicode="X" horiz-adv-x="515" 
d="M257 452l117 248h92l-163 -336l177 -364h-92l-131 275l-130 -275h-92l176 364l-163 336h93z" />
    <glyph glyph-name="Y" unicode="Y" horiz-adv-x="502" 
d="M251 437l132 263h94l-183 -369v-331h-87v331l-182 369h93z" />
    <glyph glyph-name="Z" unicode="Z" horiz-adv-x="487" 
d="M149 79h287v-79h-386v84l287 537h-272v79h372v-84z" />
    <glyph glyph-name="bracketleft" unicode="[" horiz-adv-x="327" 
d="M282 -179h-197v879h197v-81h-114v-719h114v-79z" />
    <glyph glyph-name="backslash" unicode="\" horiz-adv-x="366" 
d="M361 0h-84l-272 700h83z" />
    <glyph glyph-name="bracketright" unicode="]" horiz-adv-x="327" 
d="M45 -100h114v719h-114v81h197v-879h-197v79z" />
    <glyph glyph-name="asciicircum" unicode="^" horiz-adv-x="480" 
d="M274 699l141 -369h-74l-103 264l-99 -264h-74l141 369h68z" />
    <glyph glyph-name="underscore" unicode="_" horiz-adv-x="491" 
d="M486 -75v-67h-481v67h481z" />
    <glyph glyph-name="grave" unicode="`" horiz-adv-x="247" 
d="M157 562l-152 148h114l127 -148h-89z" />
    <glyph glyph-name="a" unicode="a" horiz-adv-x="462" 
d="M319 31q-15 -15 -44.5 -28t-66.5 -13q-33 0 -62.5 11.5t-52 32.5t-35.5 49.5t-13 62.5q0 33 13 61.5t34.5 50.5t51 35.5t62.5 15.5l113 7v26q0 19 -5.5 36t-16.5 30t-27 21t-37 8q-73 0 -84 -73h-79q7 65 50 105.5t113 40.5q41 0 71.5 -13t51 -35t31 -51.5t10.5 -62.5
v-348h-78v31zM212 62q23 0 42.5 7t34 18.5t22.5 26.5t8 31v99l-109 -7q-38 -2 -62.5 -28t-24.5 -62q0 -18 7 -33.5t19 -27t28.5 -18t34.5 -6.5z" />
    <glyph glyph-name="b" unicode="b" horiz-adv-x="480" 
d="M70 700h78v-231q6 7 16.5 14.5t24 13.5t29.5 9.5t31 3.5q39 0 71.5 -13t56 -35t36 -51.5t12.5 -62.5v-196q0 -34 -12.5 -63.5t-36 -51.5t-56 -34.5t-71.5 -12.5q-15 0 -31 3.5t-29.5 9.5t-24 13.5t-16.5 14.5v-31h-78v700zM347 342q0 19 -7.5 36t-21 30t-31.5 21t-39 8
t-39 -8t-31.5 -21t-21.5 -30t-8 -36v-184q0 -19 8 -36t22 -30t32 -21t39 -8q20 0 38 8t31.5 21t21 30t7.5 36v184z" />
    <glyph glyph-name="c" unicode="c" horiz-adv-x="464" 
d="M138 158q0 -19 7.5 -36t21 -30t32 -21t39.5 -8q42 0 70 29t28 71h78q0 -38 -12.5 -69.5t-35.5 -54.5t-55.5 -36t-72.5 -13q-41 0 -73.5 12.5t-56 34.5t-36 52t-12.5 64v195q0 33 12.5 62.5t36 51.5t56 35t73.5 13q38 0 70 -13t54.5 -35.5t35 -54t12.5 -67.5h-78
q0 42 -26 69.5t-68 27.5q-21 0 -39 -8t-31.5 -21t-21.5 -30t-8 -36v-184z" />
    <glyph glyph-name="d" unicode="d" horiz-adv-x="480" 
d="M410 0h-78v31q-6 -7 -16.5 -14.5t-24 -13.5t-29.5 -9.5t-31 -3.5q-39 0 -71.5 12.5t-56 34.5t-36 51.5t-12.5 63.5v196q0 33 12.5 62.5t36 51.5t56 35t71.5 13q15 0 31 -3.5t29.5 -9.5t24 -13.5t16.5 -14.5v231h78v-700zM133 158q0 -19 7.5 -36t21 -30t31.5 -21t38 -8
q21 0 39 8t32 21t22 30t8 36v184q0 19 -8 36t-21.5 30t-31.5 21t-39 8t-39 -8t-31.5 -21t-21 -30t-7.5 -36v-184z" />
    <glyph glyph-name="e" unicode="e" horiz-adv-x="464" 
d="M404 163q0 -39 -12 -71t-34.5 -54.5t-54 -35t-70.5 -12.5t-71 12.5t-54.5 34.5t-35 51.5t-12.5 63.5v196q0 33 12.5 62.5t35 51.5t54.5 35t71 13t70.5 -13t54 -35t34.5 -51.5t12 -62.5v-128h-268v-62q0 -19 7.5 -36t20.5 -30t30.5 -21t37.5 -8q41 0 68.5 28t27.5 72h76z
M136 293h192v49q0 19 -7.5 36t-20.5 30t-30.5 21t-37.5 8t-37.5 -8t-30.5 -21t-20.5 -30t-7.5 -36v-49z" />
    <glyph glyph-name="f" unicode="f" horiz-adv-x="329" 
d="M20 500h70v72q0 29 11 54t30 44t44.5 29.5t54.5 10.5q23 0 45.5 -8.5t43.5 -22.5l-45 -60q-11 8 -22 13.5t-22 5.5q-26 0 -44 -18.5t-18 -44.5v-75h127v-72h-127v-428h-78v428h-70v72z" />
    <glyph glyph-name="g" unicode="g" horiz-adv-x="444" 
d="M166 147q-24 7 -45 21t-36 33t-24 42.5t-9 49.5v66q0 31 12.5 58.5t34 48t50.5 32.5t61 12q15 0 35.5 -4t40.5 -16l30 41q15 20 36.5 25.5t42.5 5.5v-72q-27 0 -36 -13l-22 -33q14 -17 21.5 -39.5t7.5 -45.5v-66q0 -26 -9 -50t-25 -43.5t-37.5 -33.5t-46.5 -20v-29
q0 -10 5 -15t12 -10l84 -57q32 -21 48.5 -44.5t16.5 -56.5q0 -35 -18.5 -58.5t-47.5 -38t-64 -21t-68 -6.5q-35 0 -68.5 8t-59.5 23.5t-42 38t-16 52.5v23h78v-23q0 -20 31.5 -34.5t76.5 -14.5q52 0 86.5 13t34.5 39q0 8 -6 17.5t-14 14.5l-109 72q-17 11 -29.5 32t-12.5 46
v30zM289 358q0 35 -24 57.5t-55 22.5q-34 0 -57 -22.5t-23 -57.5v-65q0 -34 23 -57t57 -23q31 0 55 23t24 57v65z" />
    <glyph glyph-name="h" unicode="h" horiz-adv-x="490" 
d="M347 0v339q0 19 -7 37t-20 31.5t-30 22t-38 8.5t-39.5 -8t-33 -21t-23 -30t-8.5 -35v-344h-78v700h78v-230q18 17 45 28.5t68 11.5q34 0 64 -13t52 -35t35 -52.5t13 -64.5v-345h-78z" />
    <glyph glyph-name="i" unicode="i" horiz-adv-x="230" 
d="M76 500h78v-500h-78v500zM70 700h90v-89h-90v89z" />
    <glyph glyph-name="j" unicode="j" horiz-adv-x="240" 
d="M164 -53q0 -29 -11 -54t-29.5 -43.5t-44 -29t-54.5 -10.5q-23 0 -46 8.5t-44 22.5l44 60q12 -8 23.5 -13.5t22.5 -5.5q26 0 43 18t17 44v556h79v-553zM80 700h90v-89h-90v89z" />
    <glyph glyph-name="k" unicode="k" horiz-adv-x="455" 
d="M70 700h77v-700h-77v700zM147 264l181 236h99l-187 -238l195 -262h-96z" />
    <glyph glyph-name="l" unicode="l" horiz-adv-x="218" 
d="M70 700h78v-700h-78v700z" />
    <glyph glyph-name="m" unicode="m" horiz-adv-x="701" 
d="M316 0v360q0 32 -23.5 55t-56.5 23q-38 0 -63.5 -24.5t-25.5 -58.5v-355h-77v500h77v-37q17 21 42 34t58 13q22 0 40 -6t32.5 -14.5t25 -18.5t16.5 -19q20 24 52.5 41t74.5 17q31 0 58 -11t47 -30.5t31.5 -47t11.5 -60.5v-361h-78v355q0 38 -23.5 60.5t-56.5 22.5
q-35 0 -59.5 -24.5t-24.5 -58.5v-355h-78z" />
    <glyph glyph-name="n" unicode="n" horiz-adv-x="490" 
d="M347 0v337q0 21 -7.5 39t-20 32t-29.5 22t-36 8q-21 0 -40 -7.5t-34 -20.5t-23.5 -30t-8.5 -36v-344h-78v500h78v-30q20 17 46 28.5t67 11.5q34 0 64 -13t52 -35t35 -52.5t13 -64.5v-345h-78z" />
    <glyph glyph-name="o" unicode="o" horiz-adv-x="474" 
d="M414 152q0 -34 -12.5 -63.5t-35.5 -51.5t-55.5 -34.5t-72.5 -12.5q-41 0 -73.5 12.5t-56 34.5t-36 51.5t-12.5 63.5v196q0 33 12.5 62.5t36 51.5t56 35t73.5 13q40 0 72.5 -13t55.5 -35t35.5 -51.5t12.5 -62.5v-196zM336 342q0 19 -7.5 36t-21 30t-31.5 21t-39 8t-39 -8
t-31.5 -21t-21 -30t-7.5 -36v-184q0 -19 7.5 -36t21 -30t32 -21t39.5 -8t38.5 8t31 21t21 30t7.5 36v184z" />
    <glyph glyph-name="p" unicode="p" horiz-adv-x="485" 
d="M70 500h78v-31q6 7 16.5 14.5t24 13.5t29.5 9.5t31 3.5q39 0 71.5 -12.5t56 -34.5t36 -51.5t12.5 -63.5v-196q0 -33 -12.5 -62.5t-36 -51.5t-56 -35t-71.5 -13q-15 0 -31 3.5t-29.5 9.5t-24 13.5t-16.5 14.5v-211h-78v680zM347 342q0 19 -7.5 36t-21 30t-31.5 21t-38 8
q-21 0 -39 -8t-32 -21t-22 -30t-8 -36v-184q0 -19 8 -36t21.5 -30t31.5 -21t39 -8t39 8t31.5 21t21 30t7.5 36v184z" />
    <glyph glyph-name="q" unicode="q" horiz-adv-x="485" 
d="M415 -180h-78v211q-6 -7 -16.5 -14.5t-24 -13.5t-29.5 -9.5t-31 -3.5q-39 0 -71.5 13t-56 35t-36 51.5t-12.5 62.5v196q0 34 12.5 63.5t36 51.5t56 34.5t71.5 12.5q15 0 31 -3.5t29.5 -9.5t24 -13.5t16.5 -14.5v31h78v-680zM138 158q0 -19 7.5 -36t21 -30t31.5 -21t39 -8
t39 8t31.5 21t21.5 30t8 36v184q0 19 -8 36t-22 30t-32 21t-39 8q-20 0 -38 -8t-31.5 -21t-21 -30t-7.5 -36v-184z" />
    <glyph glyph-name="r" unicode="r" horiz-adv-x="314" 
d="M294 433q-6 1 -13 2q-6 1 -13 2t-14 1q-21 0 -40 -8.5t-34 -22t-23.5 -31t-8.5 -36.5v-340h-78v500h78v-43q18 24 47.5 38.5t65.5 14.5q6 0 11.5 -0.5t10.5 -1.5t11 -2v-73z" />
    <glyph glyph-name="s" unicode="s" horiz-adv-x="433" 
d="M299 357q0 16 -6.5 30.5t-17.5 26t-25.5 18t-30.5 6.5q-28 0 -50.5 -17.5t-22.5 -43.5q0 -25 17.5 -40.5t44 -27.5t57 -23.5t57 -30.5t44 -47.5t17.5 -73.5q0 -30 -13.5 -56.5t-35.5 -46t-51 -30.5t-60 -11h-10q-36 0 -66 13.5t-51.5 35t-33.5 49.5t-12 58v12h78v-9
q0 -18 7 -33.5t19 -27.5t28 -19t34 -7h6q33 0 57 21t24 53q0 26 -17.5 42.5t-44 29t-57 24.5t-57 29t-44 43t-17.5 67q0 31 12.5 57t34 44t50 28t60.5 10q39 0 68.5 -15t49 -37.5t29.5 -49.5t10 -51h-81z" />
    <glyph glyph-name="t" unicode="t" horiz-adv-x="388" 
d="M20 500h70v142h78v-142h163v-72h-163v-304q0 -26 18 -43.5t44 -17.5q24 0 41.5 16.5t17.5 39.5v12h74v-12q0 -26 -10.5 -49.5t-29 -41t-42.5 -28t-51 -10.5q-29 0 -54.5 10.5t-44.5 29t-30 43.5t-11 54v301h-70v72z" />
    <glyph glyph-name="u" unicode="u" horiz-adv-x="490" 
d="M143 500v-337q0 -21 7.5 -39t20 -32t29.5 -22t36 -8q21 0 40 7.5t34 20.5t23.5 30t8.5 36v344h78v-500h-78v30q-20 -17 -46 -28.5t-67 -11.5q-34 0 -64 13t-52 35t-35 52t-13 65v345h78z" />
    <glyph glyph-name="v" unicode="v" horiz-adv-x="466" 
d="M138 312l84 -249h22l84 249v188h78v-189l-108 -311h-130l-108 311v189h78v-188z" />
    <glyph glyph-name="w" unicode="w" horiz-adv-x="619" 
d="M481 500h78v-194l-62 -306h-122l-63 244h-5l-63 -244h-122l-62 306v194h78v-186l42 -241h10l69 261h100l70 -261h10l42 241v186z" />
    <glyph glyph-name="x" unicode="x" horiz-adv-x="424" 
d="M212 326l93 174h89l-137 -244l142 -256h-87l-100 185l-100 -185h-87l141 256l-136 244h88z" />
    <glyph glyph-name="y" unicode="y" horiz-adv-x="470" 
d="M236 118l130 382h84l-247 -680h-79l69 196l-173 484h84z" />
    <glyph glyph-name="z" unicode="z" horiz-adv-x="417" 
d="M136 72h236v-72h-327v75l233 353h-219v72h309v-77z" />
    <glyph glyph-name="braceleft" unicode="{" horiz-adv-x="335" 
d="M290 -190q-41 0 -76.5 14.5t-62 39.5t-42 59t-15.5 72v189q0 17 -15.5 30.5t-38.5 13.5v75q22 0 38 13t16 30v181q0 38 15.5 71.5t42 58.5t62 39.5t76.5 14.5v-81q-49 0 -80.5 -30t-31.5 -74v-170q0 -33 -19 -56.5t-39 -35.5q20 -11 39 -34t19 -57v-179q0 -22 8.5 -41
t23.5 -33.5t35.5 -22.5t44.5 -8v-79z" />
    <glyph glyph-name="bar" unicode="|" horiz-adv-x="248" 
d="M85 700h78v-880h-78v880z" />
    <glyph glyph-name="braceright" unicode="}" horiz-adv-x="335" 
d="M45 -111q24 0 44.5 8t35.5 22.5t23.5 33.5t8.5 41v179q0 34 19 57t39 34q-20 12 -39 35.5t-19 56.5v170q0 44 -31.5 74t-80.5 30v81q41 0 76.5 -14.5t62 -39.5t42 -58.5t15.5 -71.5v-181q0 -17 16 -30t38 -13v-75q-23 0 -38.5 -13.5t-15.5 -30.5v-189q0 -38 -15.5 -72
t-42 -59t-62 -39.5t-76.5 -14.5v79z" />
    <glyph glyph-name="asciitilde" unicode="~" horiz-adv-x="600" 
d="M65 234q3 23 14 45t29 39.5t41.5 28.5t52.5 11q26 0 52 -9t51 -19.5t49 -19t46 -8.5q24 0 38.5 16.5t19.5 31.5h77q-4 -23 -15 -45t-28 -39.5t-40.5 -28.5t-51.5 -11q-27 0 -54.5 8.5t-53.5 19t-49 19.5t-41 9q-24 0 -39.5 -15.5t-21.5 -32.5h-76z" />
    <glyph glyph-name="uni00A0" unicode="&#xa0;" horiz-adv-x="220" 
 />
    <glyph glyph-name="exclamdown" unicode="&#xa1;" horiz-adv-x="258" 
d="M80 500h98v-98h-98v98zM169 -192h-81v527h81v-527z" />
    <glyph glyph-name="cent" unicode="&#xa2;" horiz-adv-x="480" 
d="M212 0q-34 4 -61.5 18.5t-46.5 36t-29 49t-10 57.5v182q0 60 39 104.5t108 54.5v47h78v-50q58 -14 92 -57.5t34 -102.5h-78q0 40 -26.5 67.5t-67.5 27.5q-21 0 -39.5 -8t-32 -21.5t-21.5 -31t-8 -36.5v-172q0 -19 8 -36t21.5 -30t32 -21t39.5 -8q20 0 38 8t31.5 21.5
t21 31.5t7.5 38h78q0 -63 -35 -108t-95 -59v-51h-78v49z" />
    <glyph glyph-name="sterling" unicode="&#xa3;" horiz-adv-x="488" 
d="M432 0h-355v81h28v201h-60v79h60v186q0 34 13 63.5t35 51.5t52 34.5t64 12.5t64 -12.5t52 -34.5t35 -51.5t13 -63.5v-39h-84v44q0 32 -23 55t-55 23q-35 0 -58 -23t-23 -55v-191h124v-79h-124v-201h242v-81z" />
    <glyph glyph-name="currency" unicode="&#xa4;" horiz-adv-x="576" 
d="M406 116q-27 -18 -57.5 -27t-60.5 -9q-65 0 -119 36l-48 -47l-56 57l47 48q-17 26 -26.5 56t-9.5 61q0 63 37 120l-48 48l56 56l48 -48q56 36 119 36q62 0 118 -36l48 48l57 -56l-48 -48q36 -56 36 -120q0 -65 -35 -117l47 -48l-57 -57zM193 198q20 -20 44.5 -29.5
t50.5 -9.5q27 0 51 10.5t42 29t28.5 42.5t10.5 51t-10.5 51t-28.5 42.5t-42 29t-51 10.5t-51.5 -10.5t-42.5 -29t-29 -42.5t-11 -51q0 -26 9.5 -50t29.5 -44z" />
    <glyph glyph-name="yen" unicode="&#xa5;" horiz-adv-x="514" 
d="M455 194h-156v-194h-85v194h-156v78h156v58l-5 12h-151v79h115l-128 279h91l120 -273l123 273h90l-128 -279h114v-79h-151l-5 -10v-60h156v-78z" />
    <glyph glyph-name="brokenbar" unicode="&#xa6;" horiz-adv-x="248" 
d="M85 701h78v-364h-78v364zM85 182h78v-362h-78v362z" />
    <glyph glyph-name="section" unicode="&#xa7;" horiz-adv-x="510" 
d="M173 146q0 -30 16.5 -52.5t60.5 -22.5h5q40 0 56.5 18t16.5 36q0 23 -19.5 40t-48.5 32t-63.5 30.5t-63.5 37.5t-48.5 51.5t-19.5 72.5q0 35 14 64t37 49q-20 29 -20 73q0 27 10 51.5t30 43t49.5 29t69.5 10.5h7q42 0 72 -11.5t48.5 -32t27.5 -49t9 -62.5h-83
q0 30 -16 52t-61 22h-4q-42 0 -58 -18t-16 -36q0 -23 19.5 -40t49 -32t63.5 -30.5t63.5 -37t49 -51.5t19.5 -72q0 -36 -14.5 -65t-37.5 -49q9 -15 15 -32.5t6 -40.5q0 -27 -10 -51.5t-30 -42.5t-50 -29t-69 -11h-7q-42 0 -72 11.5t-48.5 32.5t-27.5 49.5t-9 62.5h82z
M361 303q0 27 -18.5 46t-46.5 35t-61 31t-61 33q-11 -9 -18.5 -22t-7.5 -30q0 -27 19 -46.5t47 -35.5t61 -30t60 -32q11 9 18.5 22t7.5 29z" />
    <glyph glyph-name="dieresis" unicode="&#xa8;" horiz-adv-x="268" 
d="M5 700h89v-89h-89v89zM174 700h89v-89h-89v89z" />
    <glyph glyph-name="copyright" unicode="&#xa9;" horiz-adv-x="719" 
d="M295 283q0 -26 19.5 -46.5t48.5 -20.5q27 0 46 19t19 50h73q0 -30 -10 -56t-28 -45t-43.5 -30t-56.5 -11q-32 0 -58 10t-44 27.5t-28 40.5t-10 50v165q0 26 10 49t28 40.5t44 28t58 10.5q30 0 54.5 -11t42 -30.5t27.5 -45.5t10 -55h-73q0 32 -17 50.5t-44 18.5
q-29 0 -48.5 -20.5t-19.5 -47.5v-140zM368 65q41 0 78.5 15.5t65.5 42.5t44.5 63t16.5 77v175q0 40 -16.5 76t-44.5 63t-65.5 42.5t-78.5 15.5h-17q-41 0 -78.5 -15.5t-66 -42.5t-45.5 -63t-17 -76v-175q0 -41 17 -77t45.5 -63t66 -42.5t78.5 -15.5h17zM368 710
q58 0 110 -21.5t91 -59t62 -88t23 -107.5v-168q0 -57 -23 -107.5t-62 -88t-91 -59t-110 -21.5h-17q-58 0 -110 21.5t-91 59t-62 88t-23 107.5v168q0 57 23 107.5t62 88t91 59t110 21.5h17z" />
    <glyph glyph-name="ordfeminine" unicode="&#xaa;" horiz-adv-x="341" 
d="M224 403q-12 -10 -28 -14.5t-32 -4.5q-21 0 -40.5 8t-35 21.5t-24.5 32.5t-9 41q0 21 8.5 39.5t23 32t34 22t41.5 10.5l62 4v7q0 18 -12.5 34t-33.5 16q-17 0 -29 -9t-16 -29h-64q7 48 35.5 72t73.5 24q52 0 80 -30t28 -75v-215h-62v13zM166 443q23 0 40.5 13.5
t17.5 28.5v51l-59 -4q-19 -2 -34 -14t-15 -30q0 -17 16 -31t34 -14zM286 282h-224v58h224v-58z" />
    <glyph glyph-name="guillemotleft" unicode="&#xab;" 
d="M187 133l-122 158l122 159h93l-123 -159l124 -158h-94zM366 133l-122 158l122 159h93l-123 -159l124 -158h-94z" />
    <glyph glyph-name="logicalnot" unicode="&#xac;" horiz-adv-x="583" 
d="M508 137h-80v200h-363v80h443v-280z" />
    <glyph glyph-name="uni00AD" unicode="&#xad;" horiz-adv-x="833" 
 />
    <glyph glyph-name="registered" unicode="&#xae;" horiz-adv-x="719" 
d="M365 291h-51v-134h-73v397h143q20 0 38.5 -8t32 -22t21.5 -32t8 -38v-61q0 -26 -13.5 -49.5t-33.5 -37.5l68 -149h-79zM410 451q0 11 -8.5 20t-19.5 9h-70v-124h70q11 0 19.5 8.5t8.5 21.5v65zM368 65q41 0 78.5 15.5t65.5 42.5t44.5 63t16.5 77v175q0 40 -16.5 76
t-44.5 63t-65.5 42.5t-78.5 15.5h-17q-41 0 -78.5 -15.5t-66 -42.5t-45.5 -63t-17 -76v-175q0 -41 17 -77t45.5 -63t66 -42.5t78.5 -15.5h17zM368 710q58 0 110 -21.5t91 -59t62 -88t23 -107.5v-168q0 -57 -23 -107.5t-62 -88t-91 -59t-110 -21.5h-17q-58 0 -110 21.5
t-91 59t-62 88t-23 107.5v168q0 57 23 107.5t62 88t91 59t110 21.5h17z" />
    <glyph glyph-name="macron" unicode="&#xaf;" horiz-adv-x="312" 
d="M5 671h302v-74h-302v74z" />
    <glyph glyph-name="degree" unicode="&#xb0;" horiz-adv-x="402" 
d="M55 565q0 30 11.5 56.5t31.5 46.5t46.5 31.5t56.5 11.5t56.5 -11.5t46.5 -31.5t31.5 -46.5t11.5 -56.5t-11.5 -56.5t-31.5 -46.5t-46.5 -31.5t-56.5 -11.5t-56.5 11.5t-46.5 31.5t-31.5 46.5t-11.5 56.5zM120 565q0 -33 23.5 -57t56.5 -24q34 0 57.5 24t23.5 57t-23.5 57
t-57.5 24q-33 0 -56.5 -24t-23.5 -57z" />
    <glyph glyph-name="plusminus" unicode="&#xb1;" horiz-adv-x="587" 
d="M334 510v-128h187v-79h-187v-127h-82v127h-187v79h187v128h82zM522 68h-457v79h457v-79z" />
    <glyph glyph-name="uni00B2" unicode="&#xb2;" horiz-adv-x="376" 
d="M71 577q0 31 10 55.5t27.5 42t40 26.5t48.5 9q25 0 47.5 -8.5t39.5 -24t27 -37t10 -47.5q0 -28 -12 -51t-30 -42.5t-39.5 -37t-41 -34.5t-34 -35.5t-17.5 -40.5h174v-71h-256v54q0 36 13 63.5t32 49.5t42 40t42 35t32 35t13 39q0 17 -11.5 29.5t-30.5 12.5
q-21 0 -35 -16.5t-14 -45.5h-77z" />
    <glyph glyph-name="uni00B3" unicode="&#xb3;" horiz-adv-x="373" 
d="M78 700h218v-57l-59 -78q28 -12 49.5 -39t21.5 -60v-72q0 -24 -10 -46t-27 -38t-39.5 -25.5t-46.5 -9.5h-6q-26 0 -48.5 9t-39 25t-26.5 37.5t-10 47.5v12h80v-12q0 -20 13.5 -33.5t33.5 -13.5t33 13.5t13 33.5v72q0 14 -9 23.5t-23 9.5h-57v62l52 67h-113v72z" />
    <glyph glyph-name="acute" unicode="&#xb4;" horiz-adv-x="241" 
d="M0 562l127 148h114l-152 -148h-89z" />
    <glyph glyph-name="mu" unicode="&#xb5;" horiz-adv-x="485" 
d="M65 500h78v-340q0 -20 7.5 -37.5t20 -31t29.5 -21.5t36 -8q20 0 39 7.5t34 20.5t24 30t9 36v344h78v-500h-78v30q-21 -20 -51.5 -30t-60.5 -10q-55 0 -88 35v-205h-77v680z" />
    <glyph glyph-name="paragraph" unicode="&#xb6;" horiz-adv-x="493" 
d="M210 312q-36 6 -67.5 22.5t-55.5 41.5t-38 57.5t-14 70.5q0 41 15.5 76.5t42.5 62t63.5 41.5t77.5 15h194v-879h-78v805h-62v-805h-78v492z" />
    <glyph glyph-name="periodcentered" unicode="&#xb7;" horiz-adv-x="228" 
d="M65 340h98v-98h-98v98z" />
    <glyph glyph-name="cedilla" unicode="&#xb8;" horiz-adv-x="228" 
d="M55 -128h60q9 0 15 7.5t6 16.5q0 8 -6 15.5t-15 7.5h-50v81h58v-28q32 0 56 -22t24 -54q0 -33 -23.5 -54.5t-55.5 -21.5h-69v52z" />
    <glyph glyph-name="uni00B9" unicode="&#xb9;" horiz-adv-x="265" 
d="M45 700h145v-419h-78v351h-67v68z" />
    <glyph glyph-name="ordmasculine" unicode="&#xba;" horiz-adv-x="341" 
d="M286 489q0 -45 -31.5 -75t-82.5 -30q-26 0 -47 8t-37 22.5t-24.5 33.5t-8.5 41v116q0 22 8.5 41t24.5 33.5t37 22.5t47 8q51 0 82.5 -30t31.5 -75v-116zM224 605q0 18 -15.5 32t-37.5 14q-21 0 -36 -14t-15 -32v-116q0 -18 15 -33t37 -15q21 0 36.5 15t15.5 33v116z
M286 282h-224v58h224v-58z" />
    <glyph glyph-name="guillemotright" unicode="&#xbb;" 
d="M244 133l124 158l-123 159h93l122 -159l-122 -158h-94zM65 133l124 158l-123 159h93l122 -159l-122 -158h-94z" />
    <glyph glyph-name="onequarter" unicode="&#xbc;" horiz-adv-x="760" 
d="M495 699h84l-354 -698h-85zM411 142l131 272h79l-123 -258h83v92h78v-92h36v-72h-36v-84h-78v84h-170v58zM65 700h145v-419h-78v351h-67v68z" />
    <glyph glyph-name="onehalf" unicode="&#xbd;" horiz-adv-x="770" 
d="M476 692h83l-345 -692h-82zM65 700h145v-419h-78v351h-67v68zM455 296q0 31 10 55.5t27.5 42t40 26.5t48.5 9q25 0 47.5 -8.5t39.5 -24t27 -37t10 -47.5q0 -29 -12 -51.5t-30 -42t-39.5 -37t-41 -34.5t-34 -35.5t-17.5 -40.5h174v-71h-256v54q0 36 13 63.5t32 49.5t42 40
t42 35t32 35t13 39q0 17 -11.5 29.5t-30.5 12.5q-21 0 -35 -16.5t-14 -45.5h-77z" />
    <glyph glyph-name="threequarters" unicode="&#xbe;" horiz-adv-x="836" 
d="M562 692h83l-344 -692h-83zM88 700h218v-57l-59 -78q28 -12 49.5 -39t21.5 -60v-72q0 -24 -10 -46t-27 -38t-39.5 -25.5t-46.5 -9.5h-6q-26 0 -48.5 9t-39 25t-26.5 37.5t-10 47.5v12h80v-12q0 -20 13.5 -33.5t33.5 -13.5t33 13.5t13 33.5v72q0 14 -9 23.5t-23 9.5h-57
v62l52 67h-113v72zM487 142l131 272h79l-123 -258h83v92h78v-92h36v-72h-36v-84h-78v84h-170v58z" />
    <glyph glyph-name="questiondown" unicode="&#xbf;" horiz-adv-x="472" 
d="M432 -20q0 -44 -15 -79t-40.5 -59.5t-59.5 -37.5t-73 -13q-40 0 -74.5 13t-60 36.5t-40 57.5t-14.5 76q0 47 12 77.5t30 53.5t38.5 42.5t38.5 44t30 58t12 85.5h83q0 -60 -11.5 -100t-29.5 -68.5t-38 -49t-38 -41t-29.5 -45.5t-11.5 -62q0 -42 30 -69.5t73 -27.5
q45 0 75 28.5t30 79.5h83zM308 401h-101v99h101v-99z" />
    <glyph glyph-name="Agrave" unicode="&#xc0;" 
d="M334 700l121 -403v-297h-85v223h-216v-223h-84v299l121 401h143zM272 621h-19l-95 -320h210zM266 762l-152 148h114l127 -148h-89z" />
    <glyph glyph-name="Aacute" unicode="&#xc1;" 
d="M334 700l121 -403v-297h-85v223h-216v-223h-84v299l121 401h143zM272 621h-19l-95 -320h210zM172 762l127 148h114l-152 -148h-89z" />
    <glyph glyph-name="Acircumflex" unicode="&#xc2;" 
d="M334 700l121 -403v-297h-85v223h-216v-223h-84v299l121 401h143zM272 621h-19l-95 -320h210zM117 763l106 147h76l108 -147h-73l-74 75l-71 -75h-72z" />
    <glyph glyph-name="Atilde" unicode="&#xc3;" 
d="M334 700l121 -403v-297h-85v223h-216v-223h-84v299l121 401h143zM272 621h-19l-95 -320h210zM107 776q0 20 8 40t21 35.5t30.5 25.5t37.5 10q18 0 34 -7t31 -15t28.5 -15t25.5 -7q11 0 17 13.5t6 24.5h72q0 -20 -7.5 -40t-20.5 -36t-30.5 -25.5t-36.5 -9.5q-18 0 -34.5 7
t-31.5 15t-28.5 15t-24.5 7q-12 0 -18.5 -12.5t-8.5 -25.5h-70z" />
    <glyph glyph-name="Adieresis" unicode="&#xc4;" 
d="M334 700l121 -403v-297h-85v223h-216v-223h-84v299l121 401h143zM272 621h-19l-95 -320h210zM143 900h89v-89h-89v89zM312 900h89v-89h-89v89z" />
    <glyph glyph-name="Aring" unicode="&#xc5;" 
d="M334 700l121 -403v-297h-85v223h-216v-223h-84v299l121 401h143zM272 621h-19l-95 -320h210zM183 830q0 34 22.5 57t55.5 23t56.5 -23t23.5 -57q0 -33 -23.5 -56t-56.5 -23t-55.5 23t-22.5 56zM232 831q0 -12 8 -20.5t21 -8.5t21.5 8.5t8.5 20.5q0 13 -8.5 21.5
t-21.5 8.5t-21 -8.5t-8 -21.5z" />
    <glyph glyph-name="AE" unicode="&#xc6;" horiz-adv-x="666" 
d="M608 700v-79h-209v-213h185v-78h-185v-251h217v-79h-303v223h-158v-223h-85v299l122 401h416zM159 301h154v320h-60z" />
    <glyph glyph-name="Ccedilla" unicode="&#xc7;" horiz-adv-x="494" 
d="M444 174q0 -38 -14.5 -71.5t-40 -58.5t-60 -39.5t-74.5 -14.5h-5q-40 0 -74.5 14.5t-60 39.5t-40.5 59t-15 72v351q0 38 15 71.5t40.5 58.5t60 39.5t74.5 14.5h5q40 0 74.5 -14.5t60 -39.5t40 -58.5t14.5 -72.5h-84q0 22 -8.5 41t-23 33t-34 22t-41.5 8q-23 0 -42.5 -8
t-34 -22t-23 -33t-8.5 -41v-351q0 -22 8.5 -41t23 -33.5t34 -22.5t42.5 -8q22 0 41.5 8t34 22t23 33t8.5 41v21h84v-20zM201 -128h60q9 0 15 7.5t6 16.5q0 8 -6 15.5t-15 7.5h-50v81h58v-28q32 0 56 -22t24 -54q0 -33 -23.5 -54.5t-55.5 -21.5h-69v52z" />
    <glyph glyph-name="Egrave" unicode="&#xc8;" horiz-adv-x="480" 
d="M422 700v-79h-258v-213h234v-78h-234v-251h266v-79h-350v700h342zM258 762l-152 148h114l127 -148h-89z" />
    <glyph glyph-name="Eacute" unicode="&#xc9;" horiz-adv-x="480" 
d="M422 700v-79h-258v-213h234v-78h-234v-251h266v-79h-350v700h342zM160 762l127 148h114l-152 -148h-89z" />
    <glyph glyph-name="Ecircumflex" unicode="&#xca;" horiz-adv-x="480" 
d="M422 700v-79h-258v-213h234v-78h-234v-251h266v-79h-350v700h342zM97 763l106 147h76l108 -147h-73l-74 75l-71 -75h-72z" />
    <glyph glyph-name="Edieresis" unicode="&#xcb;" horiz-adv-x="480" 
d="M422 700v-79h-258v-213h234v-78h-234v-251h266v-79h-350v700h342zM123 900h89v-89h-89v89zM292 900h89v-89h-89v89z" />
    <glyph glyph-name="Igrave" unicode="&#xcc;" horiz-adv-x="244" 
d="M164 0h-84v700h84v-700zM123 762l-152 148h114l127 -148h-89z" />
    <glyph glyph-name="Iacute" unicode="&#xcd;" horiz-adv-x="244" 
d="M164 0h-84v700h84v-700zM31 762l127 148h114l-152 -148h-89z" />
    <glyph glyph-name="Icircumflex" unicode="&#xce;" horiz-adv-x="244" 
d="M164 0h-84v700h84v-700zM-23 763l106 147h76l108 -147h-73l-74 75l-71 -75h-72z" />
    <glyph glyph-name="Idieresis" unicode="&#xcf;" horiz-adv-x="234" 
d="M159 0h-84v700h84v-700zM-2 900h89v-89h-89v89zM167 900h89v-89h-89v89z" />
    <glyph glyph-name="Eth" unicode="&#xd0;" horiz-adv-x="500" 
d="M440 184q0 -38 -15 -71.5t-40.5 -58.5t-60.5 -39.5t-74 -14.5h-185v330h-60v78h60v292h185q39 0 74 -14.5t60.5 -39.5t40.5 -58.5t15 -71.5v-332zM255 330h-105v-251h97q46 0 76.5 29.5t30.5 74.5v333q0 22 -8 41t-22.5 33.5t-34 22.5t-42.5 8h-97v-213h105v-78z" />
    <glyph glyph-name="Ntilde" unicode="&#xd1;" horiz-adv-x="540" 
d="M460 700v-700h-92l-216 535l7 -56v-479h-84v700h92l216 -534l-7 54v480h84zM114 776q0 20 8 40t21 35.5t30.5 25.5t37.5 10q18 0 34 -7t31 -15t28.5 -15t25.5 -7q11 0 17 13.5t6 24.5h72q0 -20 -7.5 -40t-20.5 -36t-30.5 -25.5t-36.5 -9.5q-18 0 -34.5 7t-31.5 15
t-28.5 15t-24.5 7q-12 0 -18.5 -12.5t-8.5 -25.5h-70z" />
    <glyph glyph-name="Ograve" unicode="&#xd2;" horiz-adv-x="537" 
d="M467 174q0 -38 -15 -71.5t-40.5 -58.5t-60.5 -39.5t-74 -14.5h-17q-40 0 -74.5 14.5t-60 39.5t-40.5 59t-15 72v351q0 38 15 71.5t40.5 58.5t60 39.5t74.5 14.5h17q39 0 74 -14.5t60.5 -39.5t40.5 -58.5t15 -71.5v-352zM381 525q0 22 -8 41t-22.5 33t-34 22t-42.5 8h-11
q-23 0 -42.5 -8t-34 -22t-23 -33t-8.5 -41v-351q0 -22 8.5 -41t23 -33.5t34 -22.5t42.5 -8h11q23 0 42.5 8t34 22t22.5 33t8 41v352zM274 762l-152 148h114l127 -148h-89z" />
    <glyph glyph-name="Oacute" unicode="&#xd3;" horiz-adv-x="537" 
d="M467 174q0 -38 -15 -71.5t-40.5 -58.5t-60.5 -39.5t-74 -14.5h-17q-40 0 -74.5 14.5t-60 39.5t-40.5 59t-15 72v351q0 38 15 71.5t40.5 58.5t60 39.5t74.5 14.5h17q39 0 74 -14.5t60.5 -39.5t40.5 -58.5t15 -71.5v-352zM381 525q0 22 -8 41t-22.5 33t-34 22t-42.5 8h-11
q-23 0 -42.5 -8t-34 -22t-23 -33t-8.5 -41v-351q0 -22 8.5 -41t23 -33.5t34 -22.5t42.5 -8h11q23 0 42.5 8t34 22t22.5 33t8 41v352zM180 762l127 148h114l-152 -148h-89z" />
    <glyph glyph-name="Ocircumflex" unicode="&#xd4;" horiz-adv-x="537" 
d="M467 174q0 -38 -15 -71.5t-40.5 -58.5t-60.5 -39.5t-74 -14.5h-17q-40 0 -74.5 14.5t-60 39.5t-40.5 59t-15 72v351q0 38 15 71.5t40.5 58.5t60 39.5t74.5 14.5h17q39 0 74 -14.5t60.5 -39.5t40.5 -58.5t15 -71.5v-352zM381 525q0 22 -8 41t-22.5 33t-34 22t-42.5 8h-11
q-23 0 -42.5 -8t-34 -22t-23 -33t-8.5 -41v-351q0 -22 8.5 -41t23 -33.5t34 -22.5t42.5 -8h11q23 0 42.5 8t34 22t22.5 33t8 41v352zM123 763l106 147h76l108 -147h-73l-74 75l-71 -75h-72z" />
    <glyph glyph-name="Otilde" unicode="&#xd5;" horiz-adv-x="537" 
d="M467 174q0 -38 -15 -71.5t-40.5 -58.5t-60.5 -39.5t-74 -14.5h-17q-40 0 -74.5 14.5t-60 39.5t-40.5 59t-15 72v351q0 38 15 71.5t40.5 58.5t60 39.5t74.5 14.5h17q39 0 74 -14.5t60.5 -39.5t40.5 -58.5t15 -71.5v-352zM381 525q0 22 -8 41t-22.5 33t-34 22t-42.5 8h-11
q-23 0 -42.5 -8t-34 -22t-23 -33t-8.5 -41v-351q0 -22 8.5 -41t23 -33.5t34 -22.5t42.5 -8h11q23 0 42.5 8t34 22t22.5 33t8 41v352zM113 776q0 20 8 40t21 35.5t30.5 25.5t37.5 10q18 0 34 -7t31 -15t28.5 -15t25.5 -7q11 0 17 13.5t6 24.5h72q0 -20 -7.5 -40t-20.5 -36
t-30.5 -25.5t-36.5 -9.5q-18 0 -34.5 7t-31.5 15t-28.5 15t-24.5 7q-12 0 -18.5 -12.5t-8.5 -25.5h-70z" />
    <glyph glyph-name="Odieresis" unicode="&#xd6;" horiz-adv-x="537" 
d="M467 174q0 -38 -15 -71.5t-40.5 -58.5t-60.5 -39.5t-74 -14.5h-17q-40 0 -74.5 14.5t-60 39.5t-40.5 59t-15 72v351q0 38 15 71.5t40.5 58.5t60 39.5t74.5 14.5h17q39 0 74 -14.5t60.5 -39.5t40.5 -58.5t15 -71.5v-352zM381 525q0 22 -8 41t-22.5 33t-34 22t-42.5 8h-11
q-23 0 -42.5 -8t-34 -22t-23 -33t-8.5 -41v-351q0 -22 8.5 -41t23 -33.5t34 -22.5t42.5 -8h11q23 0 42.5 8t34 22t22.5 33t8 41v352zM149 900h89v-89h-89v89zM318 900h89v-89h-89v89z" />
    <glyph glyph-name="multiply" unicode="&#xd7;" horiz-adv-x="518" 
d="M121 486l138 -138l138 138l56 -56l-138 -139l138 -137l-56 -57l-138 139l-137 -138l-57 56l137 137l-137 139z" />
    <glyph glyph-name="Oslash" unicode="&#xd8;" horiz-adv-x="517" 
d="M92 71q-32 46 -32 104v351q0 38 15 71.5t40.5 58.5t60 39.5t74.5 14.5h17q54 0 98 -27l8 17h84l-32 -72q15 -22 23.5 -47.5t8.5 -54.5v-352q0 -38 -15 -71.5t-40.5 -58.5t-60.5 -39.5t-74 -14.5h-17q-28 0 -53 7t-47 20l-7 -17h-83zM371 525l-9 -37l-178 -396
q14 -11 31.5 -17t37.5 -6h11q23 0 42.5 8t34 22t22.5 33t8 41v352zM145 177l12 40l174 389q-14 11 -30.5 17t-36.5 6h-11q-23 0 -42.5 -8t-34 -22t-23 -33t-8.5 -41v-348z" />
    <glyph glyph-name="Ugrave" unicode="&#xd9;" horiz-adv-x="547" 
d="M472 700v-526q0 -38 -15 -71.5t-40.5 -58.5t-60.5 -39.5t-74 -14.5h-17q-40 0 -74.5 14.5t-60 39.5t-40.5 59t-15 72v525h85v-526q0 -22 8.5 -41t23 -33.5t34 -22.5t42.5 -8h11q23 0 42.5 8t34 22t22.5 33t8 41v527h86zM276 762l-152 148h114l127 -148h-89z" />
    <glyph glyph-name="Uacute" unicode="&#xda;" horiz-adv-x="547" 
d="M472 700v-526q0 -38 -15 -71.5t-40.5 -58.5t-60.5 -39.5t-74 -14.5h-17q-40 0 -74.5 14.5t-60 39.5t-40.5 59t-15 72v525h85v-526q0 -22 8.5 -41t23 -33.5t34 -22.5t42.5 -8h11q23 0 42.5 8t34 22t22.5 33t8 41v527h86zM179 762l127 148h114l-152 -148h-89z" />
    <glyph glyph-name="Ucircumflex" unicode="&#xdb;" horiz-adv-x="547" 
d="M472 700v-526q0 -38 -15 -71.5t-40.5 -58.5t-60.5 -39.5t-74 -14.5h-17q-40 0 -74.5 14.5t-60 39.5t-40.5 59t-15 72v525h85v-526q0 -22 8.5 -41t23 -33.5t34 -22.5t42.5 -8h11q23 0 42.5 8t34 22t22.5 33t8 41v527h86zM128 763l106 147h76l108 -147h-73l-74 75l-71 -75
h-72z" />
    <glyph glyph-name="Udieresis" unicode="&#xdc;" horiz-adv-x="547" 
d="M472 700v-526q0 -38 -15 -71.5t-40.5 -58.5t-60.5 -39.5t-74 -14.5h-17q-40 0 -74.5 14.5t-60 39.5t-40.5 59t-15 72v525h85v-526q0 -22 8.5 -41t23 -33.5t34 -22.5t42.5 -8h11q23 0 42.5 8t34 22t22.5 33t8 41v527h86zM154 900h89v-89h-89v89zM323 900h89v-89h-89v89z
" />
    <glyph glyph-name="Yacute" unicode="&#xdd;" horiz-adv-x="502" 
d="M251 437l132 263h94l-183 -369v-331h-87v331l-182 369h93zM162 762l127 148h114l-152 -148h-89z" />
    <glyph glyph-name="Thorn" unicode="&#xde;" horiz-adv-x="461" 
d="M65 700h84v-101h107q33 0 62.5 -12t51 -33t34 -49.5t12.5 -61.5v-145q0 -33 -12.5 -61.5t-34 -49.5t-51 -33t-62.5 -12h-107v-142h-84v700zM331 442q0 32 -23 54t-55 22h-104v-297h104q32 0 55 22t23 53v146z" />
    <glyph glyph-name="germandbls" unicode="&#xdf;" horiz-adv-x="530" 
d="M143 0h-78v525q0 38 14 71.5t38 58.5t56.5 39.5t69.5 14.5h8q37 0 69 -14t55 -37t36.5 -53.5t13.5 -63.5v-80q-44 -2 -75 -21t-31 -44q0 -22 12 -39.5t30 -34.5t38.5 -35t38.5 -39.5t30 -48.5t12 -62q0 -30 -11.5 -57t-32 -47t-48 -31.5t-58.5 -11.5q-30 0 -57 11.5
t-47.5 31.5t-32 47t-11.5 57v15h80v-20q0 -29 20.5 -49.5t49.5 -20.5q28 0 48.5 20.5t20.5 49.5q0 25 -12 44.5t-30 36.5t-39 34t-39 37.5t-30 46.5t-12 62q0 24 8.5 45t23.5 36.5t34.5 26.5t41.5 16v7q0 24 -8 45t-21.5 36.5t-31.5 24t-39 8.5t-40 -8.5t-33.5 -24
t-22.5 -36.5t-8 -45v-524z" />
    <glyph glyph-name="agrave" unicode="&#xe0;" horiz-adv-x="462" 
d="M319 31q-15 -15 -44.5 -28t-66.5 -13q-33 0 -62.5 11.5t-52 32.5t-35.5 49.5t-13 62.5q0 33 13 61.5t34.5 50.5t51 35.5t62.5 15.5l113 7v26q0 19 -5.5 36t-16.5 30t-27 21t-37 8q-73 0 -84 -73h-79q7 65 50 105.5t113 40.5q41 0 71.5 -13t51 -35t31 -51.5t10.5 -62.5
v-348h-78v31zM212 62q23 0 42.5 7t34 18.5t22.5 26.5t8 31v99l-109 -7q-38 -2 -62.5 -28t-24.5 -62q0 -18 7 -33.5t19 -27t28.5 -18t34.5 -6.5zM223 562l-152 148h114l127 -148h-89z" />
    <glyph glyph-name="aacute" unicode="&#xe1;" horiz-adv-x="462" 
d="M319 31q-15 -15 -44.5 -28t-66.5 -13q-33 0 -62.5 11.5t-52 32.5t-35.5 49.5t-13 62.5q0 33 13 61.5t34.5 50.5t51 35.5t62.5 15.5l113 7v26q0 19 -5.5 36t-16.5 30t-27 21t-37 8q-73 0 -84 -73h-79q7 65 50 105.5t113 40.5q41 0 71.5 -13t51 -35t31 -51.5t10.5 -62.5
v-348h-78v31zM212 62q23 0 42.5 7t34 18.5t22.5 26.5t8 31v99l-109 -7q-38 -2 -62.5 -28t-24.5 -62q0 -18 7 -33.5t19 -27t28.5 -18t34.5 -6.5zM131 562l127 148h114l-152 -148h-89z" />
    <glyph glyph-name="acircumflex" unicode="&#xe2;" horiz-adv-x="462" 
d="M319 31q-15 -15 -44.5 -28t-66.5 -13q-33 0 -62.5 11.5t-52 32.5t-35.5 49.5t-13 62.5q0 33 13 61.5t34.5 50.5t51 35.5t62.5 15.5l113 7v26q0 19 -5.5 36t-16.5 30t-27 21t-37 8q-73 0 -84 -73h-79q7 65 50 105.5t113 40.5q41 0 71.5 -13t51 -35t31 -51.5t10.5 -62.5
v-348h-78v31zM212 62q23 0 42.5 7t34 18.5t22.5 26.5t8 31v99l-109 -7q-38 -2 -62.5 -28t-24.5 -62q0 -18 7 -33.5t19 -27t28.5 -18t34.5 -6.5zM86 563l106 147h76l108 -147h-73l-74 75l-71 -75h-72z" />
    <glyph glyph-name="atilde" unicode="&#xe3;" horiz-adv-x="462" 
d="M319 31q-15 -15 -44.5 -28t-66.5 -13q-33 0 -62.5 11.5t-52 32.5t-35.5 49.5t-13 62.5q0 33 13 61.5t34.5 50.5t51 35.5t62.5 15.5l113 7v26q0 19 -5.5 36t-16.5 30t-27 21t-37 8q-73 0 -84 -73h-79q7 65 50 105.5t113 40.5q41 0 71.5 -13t51 -35t31 -51.5t10.5 -62.5
v-348h-78v31zM212 62q23 0 42.5 7t34 18.5t22.5 26.5t8 31v99l-109 -7q-38 -2 -62.5 -28t-24.5 -62q0 -18 7 -33.5t19 -27t28.5 -18t34.5 -6.5zM75 576q0 20 8 40t21 35.5t30.5 25.5t37.5 10q18 0 34 -7t31 -15t28.5 -15t25.5 -7q11 0 17 13.5t6 24.5h72q0 -20 -7.5 -40
t-20.5 -36t-30.5 -25.5t-36.5 -9.5q-18 0 -34.5 7t-31.5 15t-28.5 15t-24.5 7q-12 0 -18.5 -12.5t-8.5 -25.5h-70z" />
    <glyph glyph-name="adieresis" unicode="&#xe4;" horiz-adv-x="462" 
d="M319 31q-15 -15 -44.5 -28t-66.5 -13q-33 0 -62.5 11.5t-52 32.5t-35.5 49.5t-13 62.5q0 33 13 61.5t34.5 50.5t51 35.5t62.5 15.5l113 7v26q0 19 -5.5 36t-16.5 30t-27 21t-37 8q-73 0 -84 -73h-79q7 65 50 105.5t113 40.5q41 0 71.5 -13t51 -35t31 -51.5t10.5 -62.5
v-348h-78v31zM212 62q23 0 42.5 7t34 18.5t22.5 26.5t8 31v99l-109 -7q-38 -2 -62.5 -28t-24.5 -62q0 -18 7 -33.5t19 -27t28.5 -18t34.5 -6.5zM112 700h89v-89h-89v89zM281 700h89v-89h-89v89z" />
    <glyph glyph-name="aring" unicode="&#xe5;" horiz-adv-x="462" 
d="M319 31q-15 -15 -44.5 -28t-66.5 -13q-33 0 -62.5 11.5t-52 32.5t-35.5 49.5t-13 62.5q0 33 13 61.5t34.5 50.5t51 35.5t62.5 15.5l113 7v26q0 19 -5.5 36t-16.5 30t-27 21t-37 8q-73 0 -84 -73h-79q7 65 50 105.5t113 40.5q41 0 71.5 -13t51 -35t31 -51.5t10.5 -62.5
v-348h-78v31zM212 62q23 0 42.5 7t34 18.5t22.5 26.5t8 31v99l-109 -7q-38 -2 -62.5 -28t-24.5 -62q0 -18 7 -33.5t19 -27t28.5 -18t34.5 -6.5zM152 630q0 34 22.5 57t55.5 23t56.5 -23t23.5 -57q0 -33 -23.5 -56t-56.5 -23t-55.5 23t-22.5 56zM201 631q0 -12 8 -20.5
t21 -8.5t21.5 8.5t8.5 20.5q0 13 -8.5 21.5t-21.5 8.5t-21 -8.5t-8 -21.5z" />
    <glyph glyph-name="ae" unicode="&#xe6;" horiz-adv-x="708" 
d="M647 164q0 -39 -11 -71t-32 -55t-50.5 -35.5t-65.5 -12.5q-40 0 -71.5 15.5t-53.5 40.5q-11 -11 -23.5 -21t-28.5 -18t-37.5 -12.5t-50.5 -4.5q-30 0 -57.5 12t-48.5 33t-34 49.5t-13 61.5t13 62t34.5 50t50 33t58.5 12h95v39q0 19 -5 36t-14.5 30.5t-24 21.5t-32.5 8
q-32 0 -51 -20.5t-24 -54.5h-76q6 65 46.5 106t104.5 41q79 0 118 -54q21 25 53 39.5t72 14.5q36 0 65.5 -13t50.5 -35t32 -51.5t11 -62.5v-117h-247v-76q0 -38 24.5 -65t61.5 -27q38 0 61 28.5t23 72.5h77zM229 61q20 0 37 6.5t29 18t19 26t7 30.5v89h-92q-17 0 -31.5 -6.5
t-26 -18t-18 -26.5t-6.5 -33t6.5 -33.5t18 -27t26 -18.5t31.5 -7zM487 438q-18 0 -34 -7.5t-27.5 -20t-18.5 -29.5t-7 -35v-43h170v39q0 19 -6 36t-17 30.5t-26 21.5t-34 8z" />
    <glyph glyph-name="ccedilla" unicode="&#xe7;" horiz-adv-x="458" 
d="M131 158q0 -19 7.5 -36t21 -30t32 -21t39.5 -8q42 0 70 29t28 71h78q0 -38 -12.5 -69.5t-35.5 -54.5t-55.5 -36t-72.5 -13q-41 0 -73.5 12.5t-56 34.5t-36 52t-12.5 64v195q0 33 12.5 62.5t36 51.5t56 35t73.5 13q38 0 70 -13t54.5 -35.5t35 -54t12.5 -67.5h-78
q0 42 -26 69.5t-68 27.5q-21 0 -39 -8t-31.5 -21t-21.5 -30t-8 -36v-184zM166 -128h60q9 0 15 7.5t6 16.5q0 8 -6 15.5t-15 7.5h-50v81h58v-28q32 0 56 -22t24 -54q0 -33 -23.5 -54.5t-55.5 -21.5h-69v52z" />
    <glyph glyph-name="egrave" unicode="&#xe8;" horiz-adv-x="464" 
d="M404 163q0 -39 -12 -71t-34.5 -54.5t-54 -35t-70.5 -12.5t-71 12.5t-54.5 34.5t-35 51.5t-12.5 63.5v196q0 33 12.5 62.5t35 51.5t54.5 35t71 13t70.5 -13t54 -35t34.5 -51.5t12 -62.5v-128h-268v-62q0 -19 7.5 -36t20.5 -30t30.5 -21t37.5 -8q41 0 68.5 28t27.5 72h76z
M136 293h192v49q0 19 -7.5 36t-20.5 30t-30.5 21t-37.5 8t-37.5 -8t-30.5 -21t-20.5 -30t-7.5 -36v-49zM238 562l-152 148h114l127 -148h-89z" />
    <glyph glyph-name="eacute" unicode="&#xe9;" horiz-adv-x="464" 
d="M404 163q0 -39 -12 -71t-34.5 -54.5t-54 -35t-70.5 -12.5t-71 12.5t-54.5 34.5t-35 51.5t-12.5 63.5v196q0 33 12.5 62.5t35 51.5t54.5 35t71 13t70.5 -13t54 -35t34.5 -51.5t12 -62.5v-128h-268v-62q0 -19 7.5 -36t20.5 -30t30.5 -21t37.5 -8q41 0 68.5 28t27.5 72h76z
M136 293h192v49q0 19 -7.5 36t-20.5 30t-30.5 21t-37.5 8t-37.5 -8t-30.5 -21t-20.5 -30t-7.5 -36v-49zM138 562l127 148h114l-152 -148h-89z" />
    <glyph glyph-name="ecircumflex" unicode="&#xea;" horiz-adv-x="464" 
d="M404 163q0 -39 -12 -71t-34.5 -54.5t-54 -35t-70.5 -12.5t-71 12.5t-54.5 34.5t-35 51.5t-12.5 63.5v196q0 33 12.5 62.5t35 51.5t54.5 35t71 13t70.5 -13t54 -35t34.5 -51.5t12 -62.5v-128h-268v-62q0 -19 7.5 -36t20.5 -30t30.5 -21t37.5 -8q41 0 68.5 28t27.5 72h76z
M136 293h192v49q0 19 -7.5 36t-20.5 30t-30.5 21t-37.5 8t-37.5 -8t-30.5 -21t-20.5 -30t-7.5 -36v-49zM87 563l106 147h76l108 -147h-73l-74 75l-71 -75h-72z" />
    <glyph glyph-name="edieresis" unicode="&#xeb;" horiz-adv-x="464" 
d="M404 163q0 -39 -12 -71t-34.5 -54.5t-54 -35t-70.5 -12.5t-71 12.5t-54.5 34.5t-35 51.5t-12.5 63.5v196q0 33 12.5 62.5t35 51.5t54.5 35t71 13t70.5 -13t54 -35t34.5 -51.5t12 -62.5v-128h-268v-62q0 -19 7.5 -36t20.5 -30t30.5 -21t37.5 -8q41 0 68.5 28t27.5 72h76z
M136 293h192v49q0 19 -7.5 36t-20.5 30t-30.5 21t-37.5 8t-37.5 -8t-30.5 -21t-20.5 -30t-7.5 -36v-49zM113 700h89v-89h-89v89zM282 700h89v-89h-89v89z" />
    <glyph glyph-name="igrave" unicode="&#xec;" horiz-adv-x="220" 
d="M71 500h78v-500h-78v500zM110 562l-152 148h114l127 -148h-89z" />
    <glyph glyph-name="iacute" unicode="&#xed;" horiz-adv-x="220" 
d="M71 500h78v-500h-78v500zM13 562l127 148h114l-152 -148h-89z" />
    <glyph glyph-name="icircumflex" unicode="&#xee;" horiz-adv-x="220" 
d="M71 500h78v-500h-78v500zM-30 563l106 147h76l108 -147h-73l-74 75l-71 -75h-72z" />
    <glyph glyph-name="idieresis" unicode="&#xef;" horiz-adv-x="220" 
d="M71 500h78v-500h-78v500zM-19 700h89v-89h-89v89zM150 700h89v-89h-89v89z" />
    <glyph glyph-name="eth" unicode="&#xf0;" horiz-adv-x="478" 
d="M414 152q0 -34 -12.5 -63.5t-35.5 -51.5t-55.5 -34.5t-72.5 -12.5q-41 0 -73.5 12.5t-56 34.5t-36 51.5t-12.5 63.5v158q0 33 12.5 62.5t36 51.5t56 35t73.5 13q26 0 52.5 -7t45.5 -24v75q0 2 -0.5 4t-0.5 4v5l-87 -31v70l65 23q-14 17 -33 26.5t-43 9.5h-56v73h56
q50 0 90 -21.5t65 -59.5l81 28v-70l-61 -21q0 -1 0.5 -6t1 -11.5t0.5 -12.5v-10v-364zM336 304q0 19 -7.5 36t-21 30t-31.5 21t-39 8t-39 -8t-31.5 -21t-21 -30t-7.5 -36v-146q0 -19 7.5 -36t21 -30t32 -21t39.5 -8t38.5 8t31 21t21 30t7.5 36v146z" />
    <glyph glyph-name="ntilde" unicode="&#xf1;" horiz-adv-x="485" 
d="M342 0v337q0 21 -7.5 39t-20 32t-29.5 22t-36 8q-21 0 -40 -7.5t-34 -20.5t-23.5 -30t-8.5 -36v-344h-78v500h78v-30q20 17 46 28.5t67 11.5q34 0 64 -13t52 -35t35 -52.5t13 -64.5v-345h-78zM87 576q0 20 8 40t21 35.5t30.5 25.5t37.5 10q18 0 34 -7t31 -15t28.5 -15
t25.5 -7q11 0 17 13.5t6 24.5h72q0 -20 -7.5 -40t-20.5 -36t-30.5 -25.5t-36.5 -9.5q-18 0 -34.5 7t-31.5 15t-28.5 15t-24.5 7q-12 0 -18.5 -12.5t-8.5 -25.5h-70z" />
    <glyph glyph-name="ograve" unicode="&#xf2;" horiz-adv-x="474" 
d="M414 152q0 -34 -12.5 -63.5t-35.5 -51.5t-55.5 -34.5t-72.5 -12.5q-41 0 -73.5 12.5t-56 34.5t-36 51.5t-12.5 63.5v196q0 33 12.5 62.5t36 51.5t56 35t73.5 13q40 0 72.5 -13t55.5 -35t35.5 -51.5t12.5 -62.5v-196zM336 342q0 19 -7.5 36t-21 30t-31.5 21t-39 8t-39 -8
t-31.5 -21t-21 -30t-7.5 -36v-184q0 -19 7.5 -36t21 -30t32 -21t39.5 -8t38.5 8t31 21t21 30t7.5 36v184zM268 562l-152 148h114l127 -148h-89z" />
    <glyph glyph-name="oacute" unicode="&#xf3;" horiz-adv-x="474" 
d="M414 152q0 -34 -12.5 -63.5t-35.5 -51.5t-55.5 -34.5t-72.5 -12.5q-41 0 -73.5 12.5t-56 34.5t-36 51.5t-12.5 63.5v196q0 33 12.5 62.5t36 51.5t56 35t73.5 13q40 0 72.5 -13t55.5 -35t35.5 -51.5t12.5 -62.5v-196zM336 342q0 19 -7.5 36t-21 30t-31.5 21t-39 8t-39 -8
t-31.5 -21t-21 -30t-7.5 -36v-184q0 -19 7.5 -36t21 -30t32 -21t39.5 -8t38.5 8t31 21t21 30t7.5 36v184zM116 562l127 148h114l-152 -148h-89z" />
    <glyph glyph-name="ocircumflex" unicode="&#xf4;" horiz-adv-x="474" 
d="M414 152q0 -34 -12.5 -63.5t-35.5 -51.5t-55.5 -34.5t-72.5 -12.5q-41 0 -73.5 12.5t-56 34.5t-36 51.5t-12.5 63.5v196q0 33 12.5 62.5t36 51.5t56 35t73.5 13q40 0 72.5 -13t55.5 -35t35.5 -51.5t12.5 -62.5v-196zM336 342q0 19 -7.5 36t-21 30t-31.5 21t-39 8t-39 -8
t-31.5 -21t-21 -30t-7.5 -36v-184q0 -19 7.5 -36t21 -30t32 -21t39.5 -8t38.5 8t31 21t21 30t7.5 36v184zM92 563l106 147h76l108 -147h-73l-74 75l-71 -75h-72z" />
    <glyph glyph-name="otilde" unicode="&#xf5;" horiz-adv-x="474" 
d="M414 152q0 -34 -12.5 -63.5t-35.5 -51.5t-55.5 -34.5t-72.5 -12.5q-41 0 -73.5 12.5t-56 34.5t-36 51.5t-12.5 63.5v196q0 33 12.5 62.5t36 51.5t56 35t73.5 13q40 0 72.5 -13t55.5 -35t35.5 -51.5t12.5 -62.5v-196zM336 342q0 19 -7.5 36t-21 30t-31.5 21t-39 8t-39 -8
t-31.5 -21t-21 -30t-7.5 -36v-184q0 -19 7.5 -36t21 -30t32 -21t39.5 -8t38.5 8t31 21t21 30t7.5 36v184zM81 576q0 20 8 40t21 35.5t30.5 25.5t37.5 10q18 0 34 -7t31 -15t28.5 -15t25.5 -7q11 0 17 13.5t6 24.5h72q0 -20 -7.5 -40t-20.5 -36t-30.5 -25.5t-36.5 -9.5
q-18 0 -34.5 7t-31.5 15t-28.5 15t-24.5 7q-12 0 -18.5 -12.5t-8.5 -25.5h-70z" />
    <glyph glyph-name="odieresis" unicode="&#xf6;" horiz-adv-x="474" 
d="M414 152q0 -34 -12.5 -63.5t-35.5 -51.5t-55.5 -34.5t-72.5 -12.5q-41 0 -73.5 12.5t-56 34.5t-36 51.5t-12.5 63.5v196q0 33 12.5 62.5t36 51.5t56 35t73.5 13q40 0 72.5 -13t55.5 -35t35.5 -51.5t12.5 -62.5v-196zM336 342q0 19 -7.5 36t-21 30t-31.5 21t-39 8t-39 -8
t-31.5 -21t-21 -30t-7.5 -36v-184q0 -19 7.5 -36t21 -30t32 -21t39.5 -8t38.5 8t31 21t21 30t7.5 36v184zM118 700h89v-89h-89v89zM287 700h89v-89h-89v89z" />
    <glyph glyph-name="divide" unicode="&#xf7;" horiz-adv-x="585" 
d="M520 334v-80h-455v80h455zM243 185h101v-99h-101v99zM243 504h101v-99h-101v99z" />
    <glyph glyph-name="oslash" unicode="&#xf8;" horiz-adv-x="474" 
d="M414 152q0 -34 -12.5 -63.5t-35.5 -51.5t-55.5 -34.5t-72.5 -12.5q-27 0 -47.5 4.5t-39.5 14.5l-6 -9h-82l29 54q-32 41 -32 98v196q0 33 12.5 62.5t36 51.5t56 35t73.5 13q47 0 85 -19l5 9h83l-30 -55q15 -20 24 -45t9 -52v-196zM336 342q0 2 -0.5 4.5t-0.5 4.5
q-1 3 -1 5l-148 -279q10 -6 23.5 -10t28.5 -4q21 0 38.5 8t31 21t21 30t7.5 36v184zM138 149q0 -3 1 -6l149 280q-25 14 -51 14q-21 0 -39 -8t-31.5 -21t-21 -30t-7.5 -36v-184v-9z" />
    <glyph glyph-name="ugrave" unicode="&#xf9;" horiz-adv-x="485" 
d="M143 500v-337q0 -21 7.5 -39t20 -32t29.5 -22t36 -8q21 0 40 7.5t34 20.5t23.5 30t8.5 36v344h78v-500h-78v30q-20 -17 -46 -28.5t-67 -11.5q-34 0 -64 13t-52 35t-35 52t-13 65v345h78zM247 562l-152 148h114l127 -148h-89z" />
    <glyph glyph-name="uacute" unicode="&#xfa;" horiz-adv-x="485" 
d="M143 500v-337q0 -21 7.5 -39t20 -32t29.5 -22t36 -8q21 0 40 7.5t34 20.5t23.5 30t8.5 36v344h78v-500h-78v30q-20 -17 -46 -28.5t-67 -11.5q-34 0 -64 13t-52 35t-35 52t-13 65v345h78zM148 562l127 148h114l-152 -148h-89z" />
    <glyph glyph-name="ucircumflex" unicode="&#xfb;" horiz-adv-x="485" 
d="M143 500v-337q0 -21 7.5 -39t20 -32t29.5 -22t36 -8q21 0 40 7.5t34 20.5t23.5 30t8.5 36v344h78v-500h-78v30q-20 -17 -46 -28.5t-67 -11.5q-34 0 -64 13t-52 35t-35 52t-13 65v345h78zM97 563l106 147h76l108 -147h-73l-74 75l-71 -75h-72z" />
    <glyph glyph-name="udieresis" unicode="&#xfc;" horiz-adv-x="485" 
d="M143 500v-337q0 -21 7.5 -39t20 -32t29.5 -22t36 -8q21 0 40 7.5t34 20.5t23.5 30t8.5 36v344h78v-500h-78v30q-20 -17 -46 -28.5t-67 -11.5q-34 0 -64 13t-52 35t-35 52t-13 65v345h78zM123 700h89v-89h-89v89zM292 700h89v-89h-89v89z" />
    <glyph glyph-name="yacute" unicode="&#xfd;" horiz-adv-x="470" 
d="M236 118l130 382h84l-247 -680h-79l69 196l-173 484h84zM138 562l127 148h114l-152 -148h-89z" />
    <glyph glyph-name="thorn" unicode="&#xfe;" horiz-adv-x="480" 
d="M65 700h78v-222q19 14 44.5 23t56.5 9q39 0 71.5 -13t56 -35t36 -51.5t12.5 -62.5v-196q0 -34 -12.5 -63.5t-36 -51.5t-56 -34.5t-71.5 -12.5q-32 0 -57 9t-44 24v-203h-78v880zM342 342q0 19 -7.5 36t-21 30t-31.5 21t-38 8t-38.5 -7.5t-32.5 -20t-22 -29t-8 -34.5v-188
q0 -19 8 -36t21.5 -30t31.5 -21t39 -8t39 8t31.5 21t21 30t7.5 36v184z" />
    <glyph glyph-name="ydieresis" unicode="&#xff;" horiz-adv-x="470" 
d="M236 118l130 382h84l-247 -680h-79l69 196l-173 484h84zM116 700h89v-89h-89v89zM285 700h89v-89h-89v89z" />
    <glyph glyph-name="OE" unicode="&#x152;" horiz-adv-x="651" 
d="M598 700v-80h-208v-211h184v-79h-184v-250h216v-80h-356q-40 0 -74.5 14.5t-60 40t-40.5 59.5t-15 73v327q0 39 15 72.5t40.5 59t60 40t74.5 14.5h348zM145 186q0 -23 8.5 -42t23 -33.5t34 -22.5t42.5 -8h51v538h-51q-23 0 -42.5 -8t-34 -22t-23 -33.5t-8.5 -41.5v-327z
" />
    <glyph glyph-name="oe" unicode="&#x153;" horiz-adv-x="690" 
d="M630 163q0 -39 -11.5 -71t-32.5 -54.5t-50.5 -35t-65.5 -12.5q-40 0 -72.5 15.5t-53.5 40.5q-21 -25 -53 -40.5t-70 -15.5q-37 0 -66.5 12.5t-50.5 34.5t-32.5 51.5t-11.5 63.5v196q0 33 11.5 62.5t32.5 51.5t50.5 35t66.5 13q38 0 70 -16t53 -42q21 26 53.5 42t72.5 16
q36 0 65.5 -13t50.5 -35t32.5 -51.5t11.5 -62.5v-128h-247v-62q0 -38 24 -66.5t62 -28.5q37 0 60.5 28t23.5 72h77zM305 346q0 37 -24.5 64t-60.5 27q-38 0 -61.5 -28.5t-23.5 -66.5v-184q0 -19 6.5 -36t17.5 -30t27 -21t35 -8q18 0 33.5 8t26.5 21t17.5 30t6.5 36v188z
M383 293h170v49q0 19 -6 36t-17.5 30t-27 21t-33.5 8q-37 0 -61.5 -27t-24.5 -64v-53z" />
    <glyph glyph-name="Scaron" unicode="&#x160;" horiz-adv-x="507" 
d="M361 524q0 20 -8 39t-22 33.5t-33.5 23.5t-42.5 9q-44 0 -74.5 -27.5t-30.5 -69.5q0 -37 22.5 -61t56 -44t72.5 -39.5t72.5 -47t56 -67.5t22.5 -99q0 -38 -15 -71.5t-40.5 -58.5t-60 -39.5t-73.5 -14.5h-18q-40 0 -74.5 14.5t-60 39.5t-40.5 58.5t-15 71.5v27h85v-27
q0 -22 8.5 -41t23 -33.5t34 -22.5t42.5 -8h11q23 0 42.5 8t34 21t22.5 30.5t8 37.5q0 46 -22.5 75.5t-55.5 51.5t-72.5 40.5t-72.5 43.5t-55.5 60t-22.5 90q0 39 15 72.5t40.5 58t60.5 38.5t74 14t73.5 -14.5t60 -39.5t40.5 -59t15 -73h-83zM180 910l71 -75l74 75h73
l-108 -147h-76l-106 147h72z" />
    <glyph glyph-name="scaron" unicode="&#x161;" horiz-adv-x="433" 
d="M299 357q0 16 -6.5 30.5t-17.5 26t-25.5 18t-30.5 6.5q-28 0 -50.5 -17.5t-22.5 -43.5q0 -25 17.5 -40.5t44 -27.5t57 -23.5t57 -30.5t44 -47.5t17.5 -73.5q0 -30 -13.5 -56.5t-35.5 -46t-51 -30.5t-60 -11h-10q-36 0 -66 13.5t-51.5 35t-33.5 49.5t-12 58v12h78v-9
q0 -18 7 -33.5t19 -27.5t28 -19t34 -7h6q33 0 57 21t24 53q0 26 -17.5 42.5t-44 29t-57 24.5t-57 29t-44 43t-17.5 67q0 31 12.5 57t34 44t50 28t60.5 10q39 0 68.5 -15t49 -37.5t29.5 -49.5t10 -51h-81zM143 710l71 -75l74 75h73l-108 -147h-76l-106 147h72z" />
    <glyph glyph-name="Ydieresis" unicode="&#x178;" horiz-adv-x="502" 
d="M251 437l132 263h94l-183 -369v-331h-87v331l-182 369h93zM132 900h89v-89h-89v89zM301 900h89v-89h-89v89z" />
    <glyph glyph-name="Zcaron" unicode="&#x17d;" horiz-adv-x="497" 
d="M154 79h287v-79h-386v84l287 537h-272v79h372v-84zM175 910l71 -75l74 75h73l-108 -147h-76l-106 147h72z" />
    <glyph glyph-name="zcaron" unicode="&#x17e;" horiz-adv-x="417" 
d="M136 72h236v-72h-327v75l233 353h-219v72h309v-77zM135 710l71 -75l74 75h73l-108 -147h-76l-106 147h72z" />
    <glyph glyph-name="florin" unicode="&#x192;" horiz-adv-x="430" 
d="M53 500h113v72q0 29 11 54.5t29.5 44t44 29t54.5 10.5q23 0 46 -8.5t44 -22.5l-45 -59q-11 8 -22.5 12.5t-22.5 4.5q-26 0 -43.5 -18t-17.5 -44v-75h127v-71h-127v-481q0 -29 -11 -54.5t-30 -44t-44.5 -29t-54.5 -10.5q-23 0 -45.5 8.5t-43.5 22.5l45 60q23 -18 44 -18
q26 0 44 18t18 44v484h-113v71z" />
    <glyph glyph-name="circumflex" unicode="&#x2c6;" horiz-adv-x="292" 
d="M1 563l106 147h76l108 -147h-73l-74 75l-71 -75h-72z" />
    <glyph glyph-name="tilde" unicode="&#x2dc;" horiz-adv-x="321" 
d="M5 576q0 20 8 40t21 35.5t30.5 25.5t37.5 10q18 0 34 -7t31 -15t28.5 -15t25.5 -7q11 0 17 13.5t6 24.5h72q0 -20 -7.5 -40t-20.5 -36t-30.5 -25.5t-36.5 -9.5q-18 0 -34.5 7t-31.5 15t-28.5 15t-24.5 7q-12 0 -18.5 -12.5t-8.5 -25.5h-70z" />
    <glyph glyph-name="endash" unicode="&#x2013;" horiz-adv-x="390" 
d="M385 254h-380v78h380v-78z" />
    <glyph glyph-name="emdash" unicode="&#x2014;" horiz-adv-x="719" 
d="M714 254h-709v78h709v-78z" />
    <glyph glyph-name="quoteleft" unicode="&#x2018;" horiz-adv-x="278" 
d="M152 486h-92l72 214h56z" />
    <glyph glyph-name="quoteright" unicode="&#x2019;" horiz-adv-x="278" 
d="M126 700h92l-72 -214h-56z" />
    <glyph glyph-name="quotesinglbase" unicode="&#x201a;" horiz-adv-x="278" 
d="M126 98h92l-72 -214h-56z" />
    <glyph glyph-name="quotedblleft" unicode="&#x201c;" horiz-adv-x="430" 
d="M304 487h-92l72 214h56zM152 487h-92l72 214h56z" />
    <glyph glyph-name="quotedblright" unicode="&#x201d;" horiz-adv-x="430" 
d="M126 701h92l-72 -214h-56zM278 701h92l-72 -214h-56z" />
    <glyph glyph-name="quotedblbase" unicode="&#x201e;" horiz-adv-x="430" 
d="M126 98h92l-72 -214h-56zM278 98h92l-72 -214h-56z" />
    <glyph glyph-name="dagger" unicode="&#x2020;" horiz-adv-x="444" 
d="M379 423h-117v-603h-83v603h-114v77h114v200h83v-200h117v-77z" />
    <glyph glyph-name="daggerdbl" unicode="&#x2021;" horiz-adv-x="444" 
d="M379 0h-117v-180h-83v180h-114v78h114v345h-114v77h114v200h83v-200h117v-77h-117v-345h117v-78z" />
    <glyph glyph-name="bullet" unicode="&#x2022;" horiz-adv-x="452" 
d="M75 359q0 31 12 58.5t32 48t47.5 32.5t59.5 12q31 0 58.5 -12t48 -32.5t32.5 -48t12 -58.5q0 -32 -12 -59.5t-32.5 -47.5t-48 -32t-58.5 -12q-32 0 -59.5 12t-47.5 32t-32 47.5t-12 59.5z" />
    <glyph glyph-name="ellipsis" unicode="&#x2026;" horiz-adv-x="632" 
d="M65 98h98v-98h-98v98zM267 98h98v-98h-98v98zM469 98h98v-98h-98v98z" />
    <glyph glyph-name="perthousand" unicode="&#x2030;" horiz-adv-x="1290" 
d="M364 427q0 -32 -11.5 -59.5t-31.5 -47.5t-46.5 -31.5t-56.5 -11.5h-8q-30 0 -56 12t-46 32t-31.5 47.5t-11.5 58.5v132q0 31 11.5 58.5t31.5 48t46 32t56 11.5h8q30 0 56.5 -11.5t46.5 -32t31.5 -48t11.5 -58.5v-132zM285 562q0 31 -21 53.5t-51 22.5t-50 -22.5
t-20 -53.5v-138q0 -32 20 -54t52 -22q29 0 49.5 22t20.5 53v139zM849 139q0 -31 -11.5 -58.5t-32 -47.5t-47 -32t-56.5 -12h-7q-30 0 -56.5 12t-46.5 32.5t-31.5 47.5t-11.5 58v132q0 32 11.5 59.5t31.5 47.5t46.5 31.5t56.5 11.5h7q30 0 56.5 -11.5t47 -31.5t32 -47.5
t11.5 -59.5v-132zM770 274q0 32 -21 54.5t-51 22.5t-50.5 -22.5t-20.5 -54.5v-137q0 -32 20.5 -54.5t51.5 -22.5q29 0 50 22t21 54v138zM592 699h85l-355 -699h-85zM1225 139q0 -31 -11.5 -58.5t-31.5 -47.5t-46.5 -32t-56.5 -12h-8q-30 0 -56 12t-46 32.5t-31.5 47.5
t-11.5 58v132q0 32 11.5 59.5t31.5 47.5t46 31.5t56 11.5h8q30 0 56.5 -11.5t46.5 -31.5t31.5 -47.5t11.5 -59.5v-132zM1146 274q0 32 -20.5 54.5t-51.5 22.5q-29 0 -49.5 -22.5t-20.5 -54.5v-137q0 -32 20.5 -54.5t51.5 -22.5q29 0 49.5 22t20.5 54v138z" />
    <glyph glyph-name="guilsinglleft" unicode="&#x2039;" horiz-adv-x="346" 
d="M187 133l-122 158l122 159h93l-123 -159l124 -158h-94z" />
    <glyph glyph-name="guilsinglright" unicode="&#x203a;" horiz-adv-x="346" 
d="M66 133l123 158l-124 159h94l122 -159l-122 -158h-93z" />
    <glyph glyph-name="Euro" unicode="&#x20ac;" horiz-adv-x="537" 
d="M399 376h-223v-57h192v-79h-192v-66q0 -22 8.5 -41t22.5 -33.5t33.5 -23t41.5 -8.5t41.5 8t33.5 22.5t22.5 33.5t8.5 41v12h84v-11q0 -38 -14.5 -71.5t-40 -58.5t-59.5 -39.5t-73 -14.5h-6q-39 0 -73 14.5t-59.5 39.5t-40 59t-14.5 72v65h-47v79h47v57h-47v79h47v71
q0 38 14.5 71.5t40 58.5t59.5 39.5t73 14.5h6q39 0 73 -14t59.5 -39t40 -58.5t14.5 -73.5h-84q0 22 -8.5 41t-22.5 33t-33.5 22.5t-41.5 8.5t-41.5 -8.5t-33.5 -22.5t-22.5 -33t-8.5 -41v-70h223v-79z" />
    <glyph glyph-name="trademark" unicode="&#x2122;" horiz-adv-x="709" 
d="M45 700h239v-62h-87v-350h-68v350h-84v62zM624 700v-412h-69v247l7 40l-57 -119h-55l-59 119l7 -41v-246h-67v412h67l79 -167l79 167h68z" />
    </font>
</defs>
</svg>
