<?xml version="1.0" encoding="utf-8"?>
<!-- Generator: Adobe Illustrator 19.2.1, SVG Export Plug-In . SVG Version: 6.00 Build 0)  -->
<svg version="1.1" id="Layer_1" xmlns="http://www.w3.org/2000/svg" xmlns:xlink="http://www.w3.org/1999/xlink" x="0px" y="0px"
	 viewBox="0 0 94 32.1" style="enable-background:new 0 0 94 32.1;" xml:space="preserve">
<style type="text/css">
	.st0{fill:#FFFFFF;}
</style>
<path class="st0" d="M20.9,19.9h-1.3l-0.5-0.5c1.6-1.9,2.6-4.4,2.6-7.1c0-6-4.9-10.9-10.9-10.9S0,6.4,0,12.4s4.9,10.9,10.9,10.9
	c2.7,0,5.2-1,7.1-2.6l0.5,0.5v1.3l8.4,8.3l2.5-2.5L20.9,19.9z M10.9,19.9c-4.2,0-7.5-3.4-7.5-7.5s3.4-7.5,7.5-7.5s7.5,3.4,7.5,7.5
	S15,19.9,10.9,19.9z"/>
<g>
	<path class="st0" d="M44.4,5.9c0-0.4-0.1-0.7-0.3-1c-0.2-0.3-0.5-0.4-0.8-0.4c-0.3,0-0.6,0.1-0.8,0.3c-0.2,0.2-0.3,0.4-0.3,0.7
		s0.1,0.5,0.3,0.7c0.2,0.2,0.5,0.4,0.8,0.6s0.7,0.4,1,0.6c0.4,0.2,0.7,0.4,1.1,0.7c0.3,0.3,0.6,0.6,0.8,1s0.3,0.9,0.3,1.4
		c0,0.4-0.1,0.8-0.2,1.1c-0.2,0.4-0.4,0.7-0.7,0.9c-0.3,0.3-0.6,0.5-1,0.6s-0.8,0.2-1.2,0.2h-0.2c-0.4,0-0.8-0.1-1.2-0.2
		s-0.7-0.4-1-0.6s-0.5-0.6-0.7-0.9C40.1,11.4,40,11,40,10.6v-0.5h1.9v0.5c0,0.3,0.1,0.6,0.4,0.8s0.5,0.4,0.9,0.4h0.2
		c0.3,0,0.6-0.1,0.9-0.3c0.2-0.2,0.4-0.5,0.4-0.8c0-0.4-0.1-0.7-0.3-0.9c-0.2-0.2-0.5-0.4-0.8-0.6s-0.7-0.4-1-0.6
		c-0.4-0.2-0.7-0.4-1-0.7c-0.3-0.2-0.6-0.6-0.8-0.9c-0.2-0.4-0.3-0.8-0.3-1.4c0-0.4,0.1-0.8,0.2-1.2c0.2-0.4,0.4-0.7,0.7-0.9
		c0.3-0.3,0.6-0.5,1-0.6c0.4-0.2,0.8-0.2,1.2-0.2c0.4,0,0.8,0.1,1.2,0.2c0.4,0.1,0.7,0.4,1,0.6s0.5,0.6,0.7,1s0.2,0.8,0.2,1.3H44.4z
		"/>
	<path class="st0" d="M54.1,2.9v1.8h-3.8v2.4h3.4v1.8h-3.4v2.9h3.9v1.8h-5.8V2.9H54.1z"/>
	<path class="st0" d="M60.6,2.9l1.6,5.9v4.6h-1.9v-3.1h-2.5v3.1H56V8.8l1.6-5.9H60.6z M59.3,4.7H59L58,8.6h2.2L59.3,4.7z"/>
	<path class="st0" d="M67.2,9.9h-0.8v3.6h-1.9V2.9h3.1c0.4,0,0.7,0.1,1,0.2c0.3,0.1,0.6,0.3,0.8,0.5c0.2,0.2,0.4,0.5,0.6,0.8
		c0.1,0.3,0.2,0.6,0.2,1v1.9c0,0.4-0.1,0.9-0.3,1.2c-0.2,0.4-0.5,0.7-0.9,0.9l1.7,3.9h-2.1L67.2,9.9z M68.4,5.4
		c0-0.2-0.1-0.4-0.2-0.5c-0.2-0.1-0.3-0.2-0.5-0.2h-1.2v3.4h1.2c0.2,0,0.4-0.1,0.5-0.2c0.1-0.1,0.2-0.3,0.2-0.5V5.4z"/>
	<path class="st0" d="M78.8,10.6c0,0.4-0.1,0.8-0.2,1.1c-0.2,0.4-0.4,0.7-0.6,0.9s-0.6,0.5-1,0.6s-0.8,0.2-1.2,0.2h-0.1
		c-0.4,0-0.8-0.1-1.2-0.2c-0.4-0.2-0.7-0.4-1-0.6c-0.3-0.3-0.5-0.6-0.7-0.9s-0.2-0.7-0.2-1.1V5.7c0-0.4,0.1-0.8,0.2-1.1
		s0.4-0.7,0.7-0.9c0.3-0.3,0.6-0.5,1-0.6c0.4-0.2,0.8-0.2,1.2-0.2h0.1c0.4,0,0.8,0.1,1.2,0.2c0.4,0.1,0.7,0.4,1,0.6
		c0.3,0.3,0.5,0.6,0.6,1c0.2,0.4,0.2,0.8,0.2,1.3h-1.9c0-0.4-0.1-0.7-0.4-1c-0.2-0.2-0.5-0.4-0.8-0.4c-0.4,0-0.6,0.1-0.9,0.3
		c-0.2,0.2-0.3,0.5-0.3,0.8v5.1c0,0.3,0.1,0.6,0.3,0.8c0.2,0.2,0.5,0.3,0.9,0.3c0.3,0,0.6-0.1,0.8-0.3c0.2-0.2,0.4-0.5,0.4-0.8v-0.6
		h1.9V10.6z"/>
	<path class="st0" d="M87.2,2.9v10.5h-1.9V8.8h-2.5v4.6h-1.9V2.9h1.9V7h2.5V2.9H87.2z"/>
	<path class="st0" d="M40.4,18.2h3.1c0.4,0,0.7,0.1,1,0.2c0.3,0.1,0.6,0.3,0.8,0.5c0.2,0.2,0.4,0.5,0.6,0.8c0.1,0.3,0.2,0.6,0.2,1v2
		c0,0.4-0.1,0.7-0.2,1c-0.1,0.3-0.3,0.6-0.6,0.8c-0.2,0.2-0.5,0.4-0.8,0.5c-0.3,0.1-0.7,0.2-1,0.2h-1.2v3.4h-1.9V18.2z M44.2,20.7
		c0-0.2-0.1-0.4-0.2-0.5C43.8,20,43.6,20,43.4,20h-1.1v3.6h1.1c0.2,0,0.4-0.1,0.6-0.2c0.2-0.1,0.2-0.3,0.2-0.5V20.7z"/>
	<path class="st0" d="M50,18.2V27h3.3v1.8h-5.2V18.2H50z"/>
	<path class="st0" d="M59.3,18.2l1.6,5.9v4.6H59v-3.1h-2.5v3.1h-1.9v-4.6l1.6-5.9H59.3z M57.9,20h-0.3l-0.9,3.9h2.2L57.9,20z"/>
	<path class="st0" d="M66.1,21.6l1.6-3.4h2.1L67,23.8v4.9h-1.9v-4.9l-2.8-5.6h2.1L66.1,21.6z"/>
	<path class="st0" d="M77,18.2V20h-3.8v2.4h3.4v1.8h-3.4V27h3.9v1.8h-5.8V18.2H77z"/>
	<path class="st0" d="M81.8,25.1H81v3.6h-1.9V18.2h3.1c0.4,0,0.7,0.1,1,0.2c0.3,0.1,0.6,0.3,0.8,0.5c0.2,0.2,0.4,0.5,0.6,0.8
		c0.1,0.3,0.2,0.6,0.2,1v1.9c0,0.4-0.1,0.8-0.3,1.2c-0.2,0.4-0.5,0.7-0.9,0.9l1.7,3.9h-2.1L81.8,25.1z M82.9,20.7
		c0-0.2-0.1-0.4-0.2-0.5C82.5,20,82.4,20,82.2,20H81v3.4h1.2c0.2,0,0.4-0.1,0.5-0.2c0.1-0.1,0.2-0.3,0.2-0.5V20.7z"/>
	<path class="st0" d="M91.3,21.2c0-0.4-0.1-0.7-0.3-1c-0.2-0.3-0.5-0.4-0.8-0.4c-0.3,0-0.6,0.1-0.8,0.3c-0.2,0.2-0.3,0.4-0.3,0.7
		s0.1,0.5,0.3,0.7c0.2,0.2,0.5,0.4,0.8,0.6c0.3,0.2,0.7,0.4,1,0.6s0.7,0.4,1.1,0.7c0.3,0.3,0.6,0.6,0.8,1c0.2,0.4,0.3,0.9,0.3,1.4
		c0,0.4-0.1,0.8-0.2,1.1c-0.2,0.4-0.4,0.7-0.7,0.9c-0.3,0.3-0.6,0.5-1,0.6c-0.4,0.2-0.8,0.2-1.2,0.2H90c-0.4,0-0.8-0.1-1.2-0.2
		c-0.4-0.2-0.7-0.4-1-0.6c-0.3-0.3-0.5-0.6-0.7-0.9c-0.2-0.4-0.2-0.7-0.2-1.1v-0.5h1.9v0.5c0,0.3,0.1,0.6,0.4,0.8
		c0.2,0.2,0.5,0.4,0.9,0.4h0.2c0.3,0,0.6-0.1,0.9-0.3c0.2-0.2,0.4-0.5,0.4-0.8c0-0.4-0.1-0.7-0.3-0.9c-0.2-0.2-0.5-0.4-0.8-0.6
		c-0.3-0.2-0.7-0.4-1-0.6c-0.4-0.2-0.7-0.4-1-0.7c-0.3-0.2-0.6-0.6-0.8-0.9s-0.3-0.8-0.3-1.4c0-0.4,0.1-0.8,0.2-1.2
		c0.2-0.4,0.4-0.7,0.7-0.9c0.3-0.3,0.6-0.5,1-0.6c0.4-0.2,0.8-0.2,1.2-0.2c0.4,0,0.8,0.1,1.2,0.2c0.4,0.1,0.7,0.4,1,0.6
		c0.3,0.3,0.5,0.6,0.7,1c0.2,0.4,0.2,0.8,0.2,1.3H91.3z"/>
</g>
</svg>
