<?xml version="1.0" encoding="utf-8"?>
<!-- Generator: Adobe Illustrator 19.2.0, SVG Export Plug-In . SVG Version: 6.00 Build 0)  -->
<svg version="1.1" id="Layer_1" xmlns="http://www.w3.org/2000/svg" xmlns:xlink="http://www.w3.org/1999/xlink" x="0px" y="0px"
	 viewBox="0 0 76 29.2" style="enable-background:new 0 0 76 29.2;" xml:space="preserve">
<style type="text/css">
	.st0{fill:#FFFFFF;}
	.st1{font-family:'DecimaW01-Bold';}
	.st2{font-size:13px;}
</style>
<path class="st0" d="M20.9,18.4h-1.3l-0.5-0.5c1.6-1.9,2.6-4.4,2.6-7.1c0-6-4.9-10.9-10.9-10.9S0,4.9,0,10.9s4.9,10.9,10.9,10.9
	c2.7,0,5.2-1,7.1-2.6l0.5,0.5v1.3l8.4,8.3l2.5-2.5L20.9,18.4z M10.9,18.4c-4.2,0-7.5-3.4-7.5-7.5s3.4-7.5,7.5-7.5s7.5,3.4,7.5,7.5
	S15,18.4,10.9,18.4z"/>
<text transform="matrix(1 0 0 1 39.5232 10.4166)"><tspan x="0" y="0" class="st0 st1 st2">Search</tspan><tspan x="0" y="15.6" class="st0 st1 st2">Player</tspan></text>
</svg>
