<?xml version="1.0" encoding="utf-8"?>
<!-- Generator: Adobe Illustrator 19.2.0, SVG Export Plug-In . SVG Version: 6.00 Build 0)  -->
<svg version="1.1"
	 id="svg3109" inkscape:export-filename="C:\Users\niortenzio\Solutions\sportsvu\image\fullcourt.png" inkscape:export-xdpi="81.059998" inkscape:export-ydpi="81.059998" inkscape:version="0.48.4 r9939" sodipodi:docname="fullcourt.svg" xmlns:cc="http://creativecommons.org/ns#" xmlns:dc="http://purl.org/dc/elements/1.1/" xmlns:inkscape="http://www.inkscape.org/namespaces/inkscape" xmlns:rdf="http://www.w3.org/1999/02/22-rdf-syntax-ns#" xmlns:sodipodi="http://sodipodi.sourceforge.net/DTD/sodipodi-0.dtd" xmlns:svg="http://www.w3.org/2000/svg"
	 xmlns="http://www.w3.org/2000/svg" xmlns:xlink="http://www.w3.org/1999/xlink" x="0px" y="0px" viewBox="0 0 940 499.3"
	 style="enable-background:new 0 0 940 499.3;" xml:space="preserve">
<style type="text/css">
	.st0{display:none;fill:#FFFFFF;fill-opacity:0.6;}
	.st1{opacity:0.85;fill:none;stroke:#9E9E9E;stroke-width:4.1481;enable-background:new    ;}
	.st2{opacity:0.85;fill:none;stroke:#9E9E9E;stroke-width:4.0295;enable-background:new    ;}
	.st3{opacity:0.85;fill:none;stroke:#9E9E9E;stroke-width:4.0175;enable-background:new    ;}
	.st4{opacity:0.85;fill:none;stroke:#9E9E9E;stroke-width:4.1481;stroke-linecap:round;enable-background:new    ;}
	.st5{opacity:0.85;fill:none;stroke:#9E9E9E;stroke-width:4.1475;stroke-linecap:round;enable-background:new    ;}
	.st6{opacity:0.85;fill:none;stroke:#9E9E9E;stroke-width:4.1409;stroke-linecap:round;enable-background:new    ;}
	.st7{opacity:0.85;fill:none;stroke:#9E9E9E;stroke-width:4.148;stroke-linecap:round;enable-background:new    ;}
</style>
<path id="rect3165" class="st0" d="M12-54h66c1.1,0,2,0.9,2,2v36c0,1.1-0.9,2-2,2H12c-1.1,0-2-0.9-2-2v-36C10-53.1,10.9-54,12-54z"
	/>
<g id="layer1" transform="translate(0,-64)" inkscape:groupmode="layer" inkscape:label="Layer">
</g>
<path id="path3117" inkscape:connector-curvature="0" class="st1" d="M937.9,1.4v495.8H470V1.4H937.9"/>
<path id="path3119" inkscape:connector-curvature="0" class="st2" d="M940,1.7v28.2H800.5V1.7H940z"/>
<path id="path3121" inkscape:connector-curvature="0" class="st3" d="M938,468.9V497H798.5v-28.1H938z"/>
<path id="path3123" inkscape:connector-curvature="0" class="st1" d="M797.7,29.7C676.8,79,618.6,217.4,667.8,338.7
	c24,59.2,70.9,106.2,129.9,130.3"/>
<path id="path3125" inkscape:connector-curvature="0" class="st1" d="M937.9,169.5H748.8v159.7H938L937.9,169.5L937.9,169.5z"/>
<path id="path3127" inkscape:connector-curvature="0" class="st1" d="M937.9,189.4H748.8v119.8H938L937.9,189.4L937.9,189.4z"/>
<path id="path3129" inkscape:connector-curvature="0" class="st1" d="M748.8,189.4c-33,0-59.7,26.8-59.7,59.9s26.7,59.9,59.7,59.9
	l0,0c33,0,59.7-26.8,59.7-59.9S781.8,189.4,748.8,189.4z"/>
<path id="path3131" inkscape:connector-curvature="0" class="st1" d="M470,189.4c33,0,59.7,26.8,59.7,59.9S503,309.2,470,309.2
	v-59.9V189.4z"/>
<path id="path3133" inkscape:connector-curvature="0" class="st1" d="M470,229.4c11,0,19.9,9,19.9,20s-8.9,19.9-19.9,20v-20V229.4z"
	/>
<path id="path3141" inkscape:connector-curvature="0" class="st4" d="M659.2,31.7V1.8"/>
<path id="path3143" inkscape:connector-curvature="0" class="st5" d="M659.2,496.9V467"/>
<path id="path3145" inkscape:connector-curvature="0" class="st1" d="M937.9,139.5h-10"/>
<path id="path3147" inkscape:connector-curvature="0" class="st1" d="M937.9,359.1h-10"/>
<path id="path3149" inkscape:connector-curvature="0" class="st1" d="M868.2,169.5v-10"/>
<path id="path3151" inkscape:connector-curvature="0" class="st1" d="M858.3,169.5v-10"/>
<path id="path3153" inkscape:connector-curvature="0" class="st1" d="M828.4,169.5v-10"/>
<path id="path3155" inkscape:connector-curvature="0" class="st1" d="M798.5,169.5v-10"/>
<path id="path3157" inkscape:connector-curvature="0" class="st1" d="M868.2,329.2v10"/>
<path id="path3159" inkscape:connector-curvature="0" class="st1" d="M858.3,329.2v10"/>
<path id="path3161" inkscape:connector-curvature="0" class="st1" d="M828.4,329.2v10"/>
<path id="path3163" inkscape:connector-curvature="0" class="st1" d="M798.5,329.2v10"/>
<path id="path3117-2" inkscape:connector-curvature="0" class="st1" d="M2.1,497.2V1.4H470v495.8L2.1,497.2"/>
<path id="path3119-7" inkscape:connector-curvature="0" class="st2" d="M2,497.1v-28.2h139.5v28.2H2z"/>
<path id="path3121-7" inkscape:connector-curvature="0" class="st3" d="M2,29.7v-28h139.5v28.1H2V29.7z"/>
<path id="path3123-9" inkscape:connector-curvature="0" class="st1" d="M142.3,468.9c121-49.3,179.1-187.6,129.9-308.9
	c-24-59.2-70.9-106.2-129.9-130.3"/>
<path id="path3125-3" inkscape:connector-curvature="0" class="st1" d="M2.1,329.2h189.2V169.4H2.1V329.2z"/>
<path id="path3127-1" inkscape:connector-curvature="0" class="st1" d="M2.1,309.2h189.2V189.4H2.1V309.2z"/>
<path id="path3129-9" inkscape:connector-curvature="0" class="st1" d="M191.2,309.2c33,0,59.7-26.8,59.7-59.9s-26.7-59.9-59.7-59.9
	s-59.7,26.8-59.8,59.9S158.2,309.2,191.2,309.2L191.2,309.2z"/>
<path id="path3131-8" inkscape:connector-curvature="0" class="st1" d="M470,309.2c-33,0-59.7-26.8-59.8-59.9s26.7-59.9,59.7-59.9
	l0,0v59.9L470,309.2L470,309.2z"/>
<path id="path3133-6" inkscape:connector-curvature="0" class="st1" d="M470,269.3c-11,0-19.9-8.9-19.9-20c0-11,8.9-20,19.9-20v20
	V269.3z"/>
<path id="path3141-8" inkscape:connector-curvature="0" class="st6" d="M280.8,496.9V467"/>
<path id="path3143-6" inkscape:connector-curvature="0" class="st7" d="M280.8,31.7v-30"/>
<path id="path3145-0" inkscape:connector-curvature="0" class="st1" d="M2.1,359.1h10"/>
<path id="path3147-2" inkscape:connector-curvature="0" class="st1" d="M2.1,139.5h10"/>
<path id="path3149-4" inkscape:connector-curvature="0" class="st1" d="M71.8,329.2v10"/>
<path id="path3151-8" inkscape:connector-curvature="0" class="st1" d="M81.7,329.2v10"/>
<path id="path3153-6" inkscape:connector-curvature="0" class="st1" d="M111.6,329.2v10"/>
<path id="path3155-5" inkscape:connector-curvature="0" class="st1" d="M141.5,329.2v10"/>
<path id="path3157-0" inkscape:connector-curvature="0" class="st1" d="M71.8,169.4v-10"/>
<path id="path3159-9" inkscape:connector-curvature="0" class="st1" d="M81.7,169.4v-10"/>
<path id="path3161-0" inkscape:connector-curvature="0" class="st1" d="M111.6,169.4v-10"/>
<path id="path3163-0" inkscape:connector-curvature="0" class="st1" d="M141.5,169.4v-10"/>
</svg>
