<?xml version="1.0" encoding="utf-8"?>
<!-- Generator: Adobe Illustrator 19.2.0, SVG Export Plug-In . SVG Version: 6.00 Build 0)  -->
<svg version="1.1"
	 id="svg3109" inkscape:export-filename="C:\Users\niortenzio\Solutions\sportsvu\image\fullcourt.png" inkscape:export-xdpi="81.059998" inkscape:export-ydpi="81.059998" inkscape:version="0.48.4 r9939" sodipodi:docname="fullcourt.svg" xmlns:cc="http://creativecommons.org/ns#" xmlns:dc="http://purl.org/dc/elements/1.1/" xmlns:inkscape="http://www.inkscape.org/namespaces/inkscape" xmlns:rdf="http://www.w3.org/1999/02/22-rdf-syntax-ns#" xmlns:sodipodi="http://sodipodi.sourceforge.net/DTD/sodipodi-0.dtd" xmlns:svg="http://www.w3.org/2000/svg"
	 xmlns="http://www.w3.org/2000/svg" xmlns:xlink="http://www.w3.org/1999/xlink" x="0px" y="0px" viewBox="0 0 940 499.3"
	 style="enable-background:new 0 0 940 499.3;" xml:space="preserve">
<style type="text/css">
	.st0{display:none;fill:#FFFFFF;fill-opacity:0.6;}
	.st1{opacity:0.65;fill:none;stroke:#D81A00;stroke-width:4.1481;enable-background:new    ;}
</style>
<path id="rect3165" class="st0" d="M12-54h66c1.1,0,2,0.9,2,2v36c0,1.1-0.9,2-2,2H12c-1.1,0-2-0.9-2-2v-36C10-53.1,10.9-54,12-54z"
	/>
<g id="layer1" transform="translate(0,-64)" inkscape:groupmode="layer" inkscape:label="Layer">
</g>
<path id="path3135" inkscape:connector-curvature="0" class="st1" d="M891.1,219.4v59.9"/>
<path id="path3137" inkscape:connector-curvature="0" class="st1" d="M889,249.3h-1"/>
<path id="path3139" inkscape:connector-curvature="0" class="st1" d="M878.7,241.8c-4.1,0-7.5,3.4-7.5,7.5s3.3,7.5,7.5,7.5
	c4.1,0,7.5-3.4,7.5-7.5C886.1,245.2,882.8,241.9,878.7,241.8L878.7,241.8z"/>
</svg>
