<?xml version="1.0" encoding="utf-8"?>
<!-- Generator: Adobe Illustrator 19.2.0, SVG Export Plug-In . SVG Version: 6.00 Build 0)  -->
<svg version="1.1" id="Layer_1" xmlns="http://www.w3.org/2000/svg" xmlns:xlink="http://www.w3.org/1999/xlink" x="0px" y="0px"
	 viewBox="0 0 76 29.2" style="enable-background:new 0 0 76 29.2;" xml:space="preserve">
<style type="text/css">
	.st0{fill:#FFFFFF;}
	.st1{enable-background:new    ;}
</style>
<path class="st0" d="M20.9,18.4h-1.3l-0.5-0.5c1.6-1.9,2.6-4.4,2.6-7.1c0-6-4.9-10.9-10.9-10.9S0,4.9,0,10.9s4.9,10.9,10.9,10.9
	c2.7,0,5.2-1,7.1-2.6l0.5,0.5V21l8.4,8.3l2.5-2.5L20.9,18.4z M10.9,18.4c-4.2,0-7.5-3.4-7.5-7.5s3.4-7.5,7.5-7.5s7.5,3.4,7.5,7.5
	S15,18.4,10.9,18.4z"/>
<g class="st1">
	<path class="st0" d="M44.1,3.9c0-0.3-0.1-0.6-0.3-0.8s-0.4-0.3-0.7-0.3s-0.5,0.1-0.7,0.3c-0.3,0-0.4,0.3-0.4,0.5
		c0,0.3,0.1,0.5,0.3,0.6c0.2,0.2,0.4,0.3,0.7,0.5s0.6,0.3,0.9,0.5c0.3,0.2,0.6,0.4,0.9,0.6c0.3,0.2,0.5,0.5,0.7,0.9
		C45.7,7,45.8,7.5,45.8,8c0,0.3-0.1,0.7-0.2,1S45.3,9.6,45,9.8c-0.2,0.2-0.5,0.4-0.9,0.6c-0.3,0.1-0.7,0.2-1,0.2h-0.2
		c-0.4,0-0.7-0.1-1.1-0.2c-0.3-0.1-0.6-0.3-0.9-0.6c-0.2-0.2-0.4-0.5-0.6-0.8s-0.2-0.6-0.2-1V7.6h1.7V8c0,0.3,0.1,0.5,0.3,0.7
		C42.4,8.9,42.7,9,43,9h0.1c0.3,0,0.5-0.1,0.7-0.3s0.3-0.4,0.3-0.7S44,7.4,43.8,7.2c-0.2-0.2-0.4-0.4-0.7-0.6s-0.6-0.3-0.9-0.5
		c-0.3-0.2-0.6-0.3-0.9-0.6S40.8,5,40.6,4.7S40.3,4,40.3,3.5c0-0.4,0.1-0.7,0.2-1s0.3-0.6,0.6-0.8s0.5-0.4,0.8-0.5s0.7-0.2,1-0.2
		c0.4,0,0.7,0.1,1,0.2s0.6,0.3,0.8,0.5s0.4,0.5,0.6,0.8c0.1,0.3,0.2,0.7,0.2,1.1h-1.4V3.9z"/>
	<path class="st0" d="M52.2,8.5c0,0.3-0.1,0.6-0.3,0.9c-0.1,0.3-0.3,0.5-0.5,0.6c-0.2,0.2-0.5,0.3-0.7,0.4c-0.3,0.1-0.6,0.1-0.9,0.1
		c-0.4,0-0.7-0.1-1-0.2c-0.3-0.1-0.5-0.3-0.8-0.5c-0.2-0.2-0.4-0.4-0.5-0.7s-0.2-0.6-0.2-0.9V6c0-0.3,0.1-0.6,0.2-0.9
		c0.1-0.3,0.3-0.5,0.5-0.7s0.5-0.4,0.8-0.5s0.6-0.2,1-0.2s0.7,0.1,1,0.2c0.3,0.1,0.5,0.3,0.8,0.5c0.2,0.2,0.4,0.4,0.5,0.7
		s0.2,0.5,0.2,0.9v1.7H49v0.7c0,0.2,0.1,0.4,0.3,0.6c0.2,0.2,0.4,0.3,0.6,0.3c0.2,0,0.3,0,0.5-0.1s0.2-0.1,0.3-0.2
		c0.1-0.1,0.1-0.2,0.2-0.4h1.3V8.5z M48.8,6.4h1.8V6c0-0.2-0.1-0.4-0.3-0.6S50,5.1,49.7,5.1c-0.2,0-0.5,0.1-0.6,0.3
		c-0.2,0.2-0.3,0.4-0.3,0.6C48.8,6,48.8,6.4,48.8,6.4z"/>
	<path class="st0" d="M57.2,9.9c-0.1,0.1-0.3,0.3-0.6,0.4c-0.3,0.1-0.6,0.2-1,0.2c-0.2,0-0.5,0-0.7-0.1s-0.5-0.2-0.6-0.4
		c-0.2-0.2-0.3-0.4-0.4-0.6c-0.1-0.2-0.2-0.5-0.2-0.8s0.1-0.6,0.2-0.8c0-0.4,0.1-0.6,0.3-0.8s0.4-0.3,0.7-0.4s0.5-0.2,0.8-0.2
		L57,6.3V5.9c0-0.2-0.1-0.4-0.3-0.6s-0.4-0.2-0.6-0.2c-0.2,0-0.4,0.1-0.5,0.2c-0.2,0.1-0.2,0.3-0.3,0.5h-1.5c0-0.3,0.1-0.6,0.2-0.8
		c0.1-0.3,0.3-0.5,0.5-0.7C54.8,4.2,55,4,55.3,3.9s0.6-0.2,0.9-0.2c0.4,0,0.7,0.1,1,0.2c0.3,0.1,0.5,0.3,0.7,0.5s0.4,0.4,0.5,0.7
		c0.1,0.3,0.2,0.6,0.2,0.9v4.4h-1.4V9.9z M55.8,9.3c0.1,0,0.3,0,0.4-0.1c0.1-0.1,0.3-0.1,0.4-0.2c0.1-0.1,0.2-0.2,0.3-0.3
		C57,8.6,57,8.5,57,8.4V7.6l-1.2,0.1c-0.2,0-0.4,0.1-0.6,0.2C55.1,8,55,8.2,55,8.4s0.1,0.4,0.2,0.5C55.4,9.2,55.6,9.3,55.8,9.3z"/>
	<path class="st0" d="M63.5,5.3c0,0-0.1,0-0.2-0.1c-0.1,0-0.1,0-0.2-0.1c-0.1,0-0.2,0-0.3,0s-0.3,0-0.4,0.1
		c-0.1,0.1-0.2,0.1-0.3,0.2S62,5.6,61.9,5.7s-0.1,0.2-0.1,0.4v4.3h-1.5V3.9h1.5v0.5C61.9,4.2,62,4.1,62.3,4c0.2-0.1,0.4-0.2,0.6-0.2
		c0.1,0,0.3,0,0.4,0s0.2,0,0.3,0.1c0.1,0,0.2,0.1,0.2,0.1L63.5,5.3z"/>
	<path class="st0" d="M65.9,8.3c0,0.2,0.1,0.4,0.3,0.6c0.2,0.2,0.4,0.3,0.6,0.3c0.3,0,0.5-0.1,0.7-0.3s0.3-0.5,0.3-0.8h1.5
		c0,0.4-0.1,0.7-0.2,1s-0.3,0.6-0.5,0.8s-0.5,0.4-0.8,0.5s-0.6,0.2-1,0.2s-0.7-0.1-1-0.2s-0.5-0.3-0.8-0.5c-0.2-0.2-0.4-0.4-0.5-0.7
		s-0.2-0.6-0.2-0.9V6c0-0.3,0.1-0.6,0.2-0.9s0.3-0.5,0.5-0.7s0.5-0.4,0.8-0.5s0.6-0.2,1-0.2s0.7,0.1,1,0.2c0.3,0.1,0.5,0.3,0.8,0.5
		c0.2,0.2,0.4,0.5,0.5,0.8s0.2,0.6,0.2,1h-1.5c0-0.3-0.1-0.6-0.3-0.8S67,5.1,66.8,5.1s-0.5,0.1-0.6,0.3C66,5.6,65.9,5.8,65.9,6V8.3z
		"/>
	<path class="st0" d="M74.3,6c0-0.1,0-0.2-0.1-0.3c0-0.1-0.1-0.2-0.2-0.3c-0.1-0.1-0.2-0.1-0.3-0.2s-0.2-0.1-0.3-0.1
		c-0.3,0-0.5,0.1-0.7,0.3c-0.2,0.2-0.3,0.4-0.3,0.6v4.4h-1.5V1.3h1.5v3c0.1-0.1,0.3-0.2,0.5-0.3c0.2-0.1,0.5-0.2,0.7-0.2
		c0.3,0,0.6,0.1,0.9,0.2c0.3,0.1,0.5,0.3,0.7,0.5s0.3,0.4,0.5,0.7c0.1,0.3,0.2,0.6,0.2,0.9v4.4h-1.5L74.3,6L74.3,6z"/>
</g>
<g class="st1">
	<path class="st0" d="M40.6,16.9h2.7c0.3,0,0.6,0.1,0.9,0.2c0.3,0.1,0.5,0.3,0.7,0.5s0.4,0.4,0.5,0.7c0.1,0.3,0.2,0.6,0.2,0.9v1.7
		c0,0.3-0.1,0.6-0.2,0.9c-0.1,0.3-0.3,0.5-0.5,0.7s-0.5,0.4-0.7,0.5c-0.3,0.1-0.6,0.2-0.9,0.2h-1v3h-1.7V16.9z M43.9,19
		c0-0.2-0.1-0.3-0.2-0.4c-0.1-0.1-0.3-0.2-0.5-0.2h-1v3.1h1c0.2,0,0.4-0.1,0.5-0.2s0.2-0.3,0.2-0.4V19z"/>
	<path class="st0" d="M47.1,16.9h1.5V26h-1.5V16.9z"/>
	<path class="st0" d="M53.8,25.5c-0.1,0.1-0.3,0.3-0.6,0.4s-0.6,0.2-1,0.2c-0.2,0-0.5,0-0.7-0.1s-0.5-0.2-0.6-0.4
		c-0.2-0.2-0.3-0.4-0.4-0.6c-0.1-0.2-0.2-0.5-0.2-0.8s0.1-0.6,0.2-0.8c0.1-0.2,0.3-0.5,0.5-0.6c0.2-0.2,0.4-0.3,0.7-0.4
		s0.5-0.2,0.8-0.2l1.3-0.1v-0.4c0-0.2-0.1-0.4-0.3-0.6s-0.4-0.2-0.6-0.2c-0.2,0-0.4,0.1-0.5,0.2c-0.2,0.1-0.2,0.3-0.3,0.5h-1.5
		c0-0.3,0.1-0.6,0.2-0.8c0.1-0.3,0.3-0.5,0.5-0.7s0.4-0.3,0.7-0.4s0.6-0.2,0.9-0.2c0.4,0,0.7,0.1,1,0.2s0.5,0.3,0.7,0.5
		s0.4,0.4,0.5,0.7c0.1,0.3,0.2,0.6,0.2,0.9V26h-1.4v-0.5H53.8z M52.5,24.9c0.1,0,0.3,0,0.4-0.1c0.1-0.1,0.3-0.1,0.4-0.2
		c0.1-0.1,0.2-0.2,0.3-0.3c0.1-0.1,0.1-0.2,0.1-0.3v-0.8l-1.2,0.1c-0.2,0-0.4,0.1-0.6,0.2c-0.1,0.1-0.2,0.3-0.2,0.5s0.1,0.4,0.2,0.5
		C52,24.8,52.2,24.9,52.5,24.9z"/>
	<path class="st0" d="M59.3,23.6l1.4-4.1h1.6L59,28.3h-1.5l1-2.7l-2.2-6.1h1.6L59.3,23.6z"/>
	<path class="st0" d="M68.2,24.1c0,0.3-0.1,0.6-0.3,0.9c-0.1,0.3-0.3,0.5-0.5,0.6c-0.2,0.2-0.5,0.3-0.7,0.4
		c-0.3,0.1-0.6,0.1-0.9,0.1c-0.4,0-0.7-0.1-1-0.2s-0.5-0.3-0.8-0.5c-0.2-0.2-0.4-0.4-0.5-0.7s-0.2-0.6-0.2-0.9v-2.3
		c0-0.3,0.1-0.6,0.2-0.9c0.1-0.3,0.3-0.5,0.5-0.7s0.5-0.4,0.8-0.5c0.3-0.1,0.6-0.2,1-0.2s0.7,0.1,1,0.2s0.5,0.3,0.8,0.5
		c0.2,0.2,0.4,0.4,0.5,0.7s0.2,0.5,0.2,0.9v1.7H65v0.7c0,0.2,0.1,0.4,0.3,0.6c0.2,0.2,0.4,0.3,0.6,0.3s0.3,0,0.5-0.1
		s0.2-0.1,0.3-0.2c0.1-0.1,0.1-0.2,0.2-0.4H68.2z M64.8,22h1.8v-0.4c0-0.2-0.1-0.4-0.3-0.6s-0.4-0.3-0.7-0.3c-0.2,0-0.5,0.1-0.6,0.3
		c-0.2,0.2-0.3,0.4-0.3,0.6L64.8,22L64.8,22z"/>
	<path class="st0" d="M73.1,20.9c0,0-0.1,0-0.2-0.1c-0.1,0-0.1,0-0.2-0.1c-0.1,0-0.2,0-0.3,0c-0.1,0-0.3,0-0.4,0.1s-0.2,0.1-0.3,0.2
		c-0.1,0.1-0.2,0.2-0.2,0.3c-0.1,0.1-0.1,0.2-0.1,0.4V26h-1.5v-6.5h1.5V20c0.1-0.2,0.3-0.3,0.5-0.4s0.4-0.2,0.6-0.2
		c0.1,0,0.3,0,0.4,0s0.2,0,0.3,0.1c0.1,0,0.2,0.1,0.2,0.1L73.1,20.9z"/>
</g>
</svg>
